<mxfile host="app.diagrams.net" agent="Mozilla/5.0 (Windows NT 10.0; Win64; x64; rv:128.0) Gecko/20100101 Firefox/128.0" version="25.0.3">
  <diagram name="Page-1" id="V8jJ6hTIM-08f5XtQR1R">
    <mxGraphModel dx="2693" dy="1897" grid="1" gridSize="10" guides="1" tooltips="1" connect="1" arrows="1" fold="1" page="1" pageScale="1" pageWidth="850" pageHeight="1100" math="0" shadow="0">
      <root>
        <mxCell id="0" />
        <mxCell id="1" parent="0" />
        <mxCell id="osnPLwHDW5WN9JGUpa0Q-143" value="" style="rounded=0;whiteSpace=wrap;html=1;" vertex="1" parent="1">
          <mxGeometry x="-270" y="-260" width="2090" height="2460" as="geometry" />
        </mxCell>
        <mxCell id="osnPLwHDW5WN9JGUpa0Q-142" value="" style="rounded=1;arcSize=10;dashed=1;strokeColor=#F59D56;fillColor=none;gradientColor=none;dashPattern=8 4;strokeWidth=2;" vertex="1" parent="1">
          <mxGeometry x="725" y="540" width="180" height="1100" as="geometry" />
        </mxCell>
        <mxCell id="osnPLwHDW5WN9JGUpa0Q-2" value="AWS Cloud" style="sketch=0;outlineConnect=0;gradientColor=none;html=1;whiteSpace=wrap;fontSize=12;fontStyle=0;shape=mxgraph.aws4.group;grIcon=mxgraph.aws4.group_aws_cloud;strokeColor=#AAB7B8;fillColor=none;verticalAlign=top;align=left;spacingLeft=30;fontColor=#AAB7B8;dashed=0;" vertex="1" parent="1">
          <mxGeometry x="60" y="30" width="1520" height="2100" as="geometry" />
        </mxCell>
        <mxCell id="osnPLwHDW5WN9JGUpa0Q-76" value="azi-prd-vpc-Autozilla-VPC" style="sketch=0;outlineConnect=0;gradientColor=none;html=1;whiteSpace=wrap;fontSize=12;fontStyle=0;shape=mxgraph.aws4.group;grIcon=mxgraph.aws4.group_vpc;strokeColor=#879196;fillColor=none;verticalAlign=top;align=left;spacingLeft=30;fontColor=#879196;dashed=0;" vertex="1" parent="1">
          <mxGeometry x="670" y="430" width="730" height="1260" as="geometry" />
        </mxCell>
        <mxCell id="osnPLwHDW5WN9JGUpa0Q-83" value="ap-south-1a" style="sketch=0;outlineConnect=0;gradientColor=none;html=1;whiteSpace=wrap;fontSize=12;fontStyle=0;shape=mxgraph.aws4.group;grIcon=mxgraph.aws4.group_availability_zone;strokeColor=#545B64;fillColor=none;verticalAlign=top;align=left;spacingLeft=30;fontColor=#545B64;dashed=1;" vertex="1" parent="1">
          <mxGeometry x="700" y="470" width="680" height="290" as="geometry" />
        </mxCell>
        <mxCell id="osnPLwHDW5WN9JGUpa0Q-3" value="eshop-live.autozilla.co vpc" style="sketch=0;outlineConnect=0;gradientColor=none;html=1;whiteSpace=wrap;fontSize=12;fontStyle=0;shape=mxgraph.aws4.group;grIcon=mxgraph.aws4.group_vpc;strokeColor=#879196;fillColor=none;verticalAlign=top;align=left;spacingLeft=30;fontColor=#879196;dashed=0;" vertex="1" parent="1">
          <mxGeometry x="120" y="80" width="430" height="280" as="geometry" />
        </mxCell>
        <mxCell id="osnPLwHDW5WN9JGUpa0Q-9" value="eshop-live.autozilla.co subnet" style="sketch=0;outlineConnect=0;gradientColor=none;html=1;whiteSpace=wrap;fontSize=12;fontStyle=0;shape=mxgraph.aws4.group;grIcon=mxgraph.aws4.group_subnet;strokeColor=#879196;fillColor=none;verticalAlign=top;align=left;spacingLeft=30;fontColor=#879196;dashed=0;" vertex="1" parent="1">
          <mxGeometry x="160" y="110" width="350" height="230" as="geometry" />
        </mxCell>
        <mxCell id="osnPLwHDW5WN9JGUpa0Q-10" value="ap-south-1a" style="sketch=0;outlineConnect=0;gradientColor=none;html=1;whiteSpace=wrap;fontSize=12;fontStyle=0;shape=mxgraph.aws4.group;grIcon=mxgraph.aws4.group_availability_zone;strokeColor=#545B64;fillColor=none;verticalAlign=top;align=left;spacingLeft=30;fontColor=#545B64;dashed=1;" vertex="1" parent="1">
          <mxGeometry x="190" y="140" width="290" height="160" as="geometry" />
        </mxCell>
        <mxCell id="osnPLwHDW5WN9JGUpa0Q-13" style="edgeStyle=orthogonalEdgeStyle;rounded=0;orthogonalLoop=1;jettySize=auto;html=1;" edge="1" parent="1" source="osnPLwHDW5WN9JGUpa0Q-11" target="osnPLwHDW5WN9JGUpa0Q-12">
          <mxGeometry relative="1" as="geometry">
            <Array as="points">
              <mxPoint x="140" y="325" />
            </Array>
          </mxGeometry>
        </mxCell>
        <mxCell id="osnPLwHDW5WN9JGUpa0Q-11" value="" style="sketch=0;outlineConnect=0;fontColor=#232F3E;gradientColor=none;fillColor=#8C4FFF;strokeColor=none;dashed=0;verticalLabelPosition=bottom;verticalAlign=top;align=center;html=1;fontSize=12;fontStyle=0;aspect=fixed;pointerEvents=1;shape=mxgraph.aws4.route_table;" vertex="1" parent="1">
          <mxGeometry x="160" y="310" width="30.79" height="30" as="geometry" />
        </mxCell>
        <mxCell id="osnPLwHDW5WN9JGUpa0Q-12" value="&lt;h1 data-awsui-analytics-label=&quot;.awsui_heading-text_105ke_268sp_5&quot; class=&quot;awsui_heading_2qdw9_kiqfw_370 awsui_heading-variant-h1_2qdw9_kiqfw_381&quot;&gt;&lt;br&gt;&lt;/h1&gt;" style="sketch=0;outlineConnect=0;fontColor=#232F3E;gradientColor=none;strokeColor=#232F3E;fillColor=#ffffff;dashed=0;verticalLabelPosition=bottom;verticalAlign=top;align=center;html=1;fontSize=12;fontStyle=0;aspect=fixed;shape=mxgraph.aws4.resourceIcon;resIcon=mxgraph.aws4.internet_gateway;" vertex="1" parent="1">
          <mxGeometry x="90" y="302.5" width="45" height="45" as="geometry" />
        </mxCell>
        <mxCell id="osnPLwHDW5WN9JGUpa0Q-14" value="&lt;h1 data-awsui-analytics-label=&quot;.awsui_heading-text_105ke_268sp_5&quot; class=&quot;awsui_heading_2qdw9_kiqfw_370 awsui_heading-variant-h1_2qdw9_kiqfw_381&quot;&gt;&lt;font style=&quot;font-size: 9px;&quot;&gt;&lt;span id=&quot;heading25-1733813178004-6678&quot; class=&quot;awsui_heading-text_2qdw9_kiqfw_397 awsui_heading-text_105ke_268sp_5 awsui_heading-text-variant-h1_2qdw9_kiqfw_400&quot;&gt;eshop-live.autozilla.co&lt;/span&gt;&lt;/font&gt;&lt;/h1&gt;" style="text;html=1;align=center;verticalAlign=middle;resizable=0;points=[];autosize=1;strokeColor=none;fillColor=none;" vertex="1" parent="1">
          <mxGeometry x="180" y="290" width="120" height="70" as="geometry" />
        </mxCell>
        <mxCell id="osnPLwHDW5WN9JGUpa0Q-15" value="&lt;h1 data-awsui-analytics-label=&quot;.awsui_heading-text_105ke_268sp_5&quot; class=&quot;awsui_heading_2qdw9_kiqfw_370 awsui_heading-variant-h1_2qdw9_kiqfw_381&quot;&gt;&lt;font style=&quot;font-size: 10px;&quot;&gt;&lt;span id=&quot;heading22-1733813619653-7063&quot; class=&quot;awsui_heading-text_2qdw9_kiqfw_397 awsui_heading-text_105ke_268sp_5 awsui_heading-text-variant-h1_2qdw9_kiqfw_400&quot;&gt;eshop-live.autozilla.co IG&lt;/span&gt;&lt;/font&gt;&lt;/h1&gt;" style="text;html=1;align=center;verticalAlign=middle;resizable=0;points=[];autosize=1;strokeColor=none;fillColor=none;" vertex="1" parent="1">
          <mxGeometry x="10" y="310" width="150" height="70" as="geometry" />
        </mxCell>
        <mxCell id="osnPLwHDW5WN9JGUpa0Q-18" value="Edge eshop-live.autozilla.co" style="sketch=0;outlineConnect=0;fontColor=#232F3E;gradientColor=none;strokeColor=#ffffff;fillColor=#232F3E;dashed=0;verticalLabelPosition=middle;verticalAlign=bottom;align=center;html=1;whiteSpace=wrap;fontSize=10;fontStyle=1;spacing=3;shape=mxgraph.aws4.productIcon;prIcon=mxgraph.aws4.ec2;" vertex="1" parent="1">
          <mxGeometry x="240" y="170" width="40" height="70" as="geometry" />
        </mxCell>
        <mxCell id="osnPLwHDW5WN9JGUpa0Q-22" value="DB eshop-live.autozilla.co" style="sketch=0;outlineConnect=0;fontColor=#232F3E;gradientColor=none;strokeColor=#ffffff;fillColor=#232F3E;dashed=0;verticalLabelPosition=middle;verticalAlign=bottom;align=center;html=1;whiteSpace=wrap;fontSize=10;fontStyle=1;spacing=3;shape=mxgraph.aws4.productIcon;prIcon=mxgraph.aws4.ec2;" vertex="1" parent="1">
          <mxGeometry x="385" y="170" width="40" height="70" as="geometry" />
        </mxCell>
        <mxCell id="osnPLwHDW5WN9JGUpa0Q-23" value="&lt;a href=&quot;https://ap-south-1.console.aws.amazon.com/ec2/home?region=ap-south-1#InstanceDetails:instanceId=i-0481af814111cd22b&quot; target=&quot;_top&quot; data-analytics-funnel-value=&quot;link736-1733813801852-4759&quot; data-awsui-analytics=&quot;{&amp;quot;action&amp;quot;:&amp;quot;click&amp;quot;,&amp;quot;detail&amp;quot;:{&amp;quot;label&amp;quot;:{&amp;quot;root&amp;quot;:&amp;quot;self&amp;quot;},&amp;quot;external&amp;quot;:&amp;quot;false&amp;quot;,&amp;quot;href&amp;quot;:&amp;quot;#InstanceDetails:instanceId=i-0481af814111cd22b&amp;quot;},&amp;quot;component&amp;quot;:{&amp;quot;name&amp;quot;:&amp;quot;awsui.Link&amp;quot;,&amp;quot;label&amp;quot;:{&amp;quot;root&amp;quot;:&amp;quot;self&amp;quot;},&amp;quot;properties&amp;quot;:{&amp;quot;variant&amp;quot;:&amp;quot;secondary&amp;quot;}}}&quot; class=&quot;awsui_link_4c84z_iv0u7_141 awsui_variant-secondary_4c84z_iv0u7_210 awsui_font-size-body-m_4c84z_iv0u7_474&quot; id=&quot;link-self737-1733813801852-2143&quot;&gt;i-0481af814111cd22b&lt;/a&gt;" style="sketch=0;outlineConnect=0;fontColor=#232F3E;gradientColor=none;strokeColor=#ffffff;fillColor=#232F3E;dashed=0;verticalLabelPosition=middle;verticalAlign=bottom;align=center;html=1;whiteSpace=wrap;fontSize=10;fontStyle=1;spacing=3;shape=mxgraph.aws4.productIcon;prIcon=mxgraph.aws4.ec2;" vertex="1" parent="1">
          <mxGeometry x="310" y="240" width="40" height="60" as="geometry" />
        </mxCell>
        <mxCell id="osnPLwHDW5WN9JGUpa0Q-24" value="azi-prd-vpc-www.autozilla.co" style="sketch=0;outlineConnect=0;gradientColor=none;html=1;whiteSpace=wrap;fontSize=12;fontStyle=0;shape=mxgraph.aws4.group;grIcon=mxgraph.aws4.group_vpc;strokeColor=#879196;fillColor=none;verticalAlign=top;align=left;spacingLeft=30;fontColor=#879196;dashed=0;" vertex="1" parent="1">
          <mxGeometry x="120" y="430" width="430" height="280" as="geometry" />
        </mxCell>
        <mxCell id="osnPLwHDW5WN9JGUpa0Q-25" value="www.autozilla.co subnet" style="sketch=0;outlineConnect=0;gradientColor=none;html=1;whiteSpace=wrap;fontSize=12;fontStyle=0;shape=mxgraph.aws4.group;grIcon=mxgraph.aws4.group_subnet;strokeColor=#879196;fillColor=none;verticalAlign=top;align=left;spacingLeft=30;fontColor=#879196;dashed=0;" vertex="1" parent="1">
          <mxGeometry x="160" y="460" width="350" height="230" as="geometry" />
        </mxCell>
        <mxCell id="osnPLwHDW5WN9JGUpa0Q-26" value="ap-south-1b" style="sketch=0;outlineConnect=0;gradientColor=none;html=1;whiteSpace=wrap;fontSize=12;fontStyle=0;shape=mxgraph.aws4.group;grIcon=mxgraph.aws4.group_availability_zone;strokeColor=#545B64;fillColor=none;verticalAlign=top;align=left;spacingLeft=30;fontColor=#545B64;dashed=1;" vertex="1" parent="1">
          <mxGeometry x="190" y="490" width="290" height="160" as="geometry" />
        </mxCell>
        <mxCell id="osnPLwHDW5WN9JGUpa0Q-27" value="&lt;h1 data-awsui-analytics-label=&quot;.awsui_heading-text_105ke_268sp_5&quot; class=&quot;awsui_heading_2qdw9_kiqfw_370 awsui_heading-variant-h1_2qdw9_kiqfw_381&quot;&gt;&lt;br&gt;&lt;/h1&gt;" style="sketch=0;outlineConnect=0;fontColor=#232F3E;gradientColor=none;strokeColor=#232F3E;fillColor=#ffffff;dashed=0;verticalLabelPosition=bottom;verticalAlign=top;align=center;html=1;fontSize=12;fontStyle=0;aspect=fixed;shape=mxgraph.aws4.resourceIcon;resIcon=mxgraph.aws4.internet_gateway;" vertex="1" parent="1">
          <mxGeometry x="90" y="652.5" width="45" height="45" as="geometry" />
        </mxCell>
        <mxCell id="osnPLwHDW5WN9JGUpa0Q-28" value="&lt;h1 data-awsui-analytics-label=&quot;.awsui_heading-text_105ke_268sp_5&quot; class=&quot;awsui_heading_2qdw9_kiqfw_370 awsui_heading-variant-h1_2qdw9_kiqfw_381&quot;&gt;&lt;font style=&quot;font-size: 9px;&quot;&gt;www.autozilla.co Route Table&lt;/font&gt;&lt;/h1&gt;&lt;h1 data-awsui-analytics-label=&quot;.awsui_heading-text_105ke_268sp_5&quot; class=&quot;awsui_heading_2qdw9_kiqfw_370 awsui_heading-variant-h1_2qdw9_kiqfw_381&quot;&gt;&lt;/h1&gt;" style="text;html=1;align=center;verticalAlign=middle;resizable=0;points=[];autosize=1;strokeColor=none;fillColor=none;" vertex="1" parent="1">
          <mxGeometry x="185" y="645" width="150" height="70" as="geometry" />
        </mxCell>
        <mxCell id="osnPLwHDW5WN9JGUpa0Q-29" value="&lt;h1 data-awsui-analytics-label=&quot;.awsui_heading-text_105ke_268sp_5&quot; class=&quot;awsui_heading_2qdw9_kiqfw_370 awsui_heading-variant-h1_2qdw9_kiqfw_381&quot;&gt;&lt;font style=&quot;font-size: 9px;&quot;&gt;www.autozilla.co IG&lt;/font&gt;&lt;/h1&gt;" style="text;html=1;align=center;verticalAlign=middle;resizable=0;points=[];autosize=1;strokeColor=none;fillColor=none;" vertex="1" parent="1">
          <mxGeometry x="57.5" y="660" width="110" height="70" as="geometry" />
        </mxCell>
        <mxCell id="osnPLwHDW5WN9JGUpa0Q-30" value="Luro-Connect-Media" style="sketch=0;outlineConnect=0;fontColor=#232F3E;gradientColor=none;strokeColor=#ffffff;fillColor=#232F3E;dashed=0;verticalLabelPosition=middle;verticalAlign=bottom;align=center;html=1;whiteSpace=wrap;fontSize=10;fontStyle=1;spacing=3;shape=mxgraph.aws4.productIcon;prIcon=mxgraph.aws4.ec2;" vertex="1" parent="1">
          <mxGeometry x="240" y="520" width="60" height="100" as="geometry" />
        </mxCell>
        <mxCell id="osnPLwHDW5WN9JGUpa0Q-33" style="edgeStyle=orthogonalEdgeStyle;rounded=0;orthogonalLoop=1;jettySize=auto;html=1;" edge="1" parent="1" source="osnPLwHDW5WN9JGUpa0Q-34" target="osnPLwHDW5WN9JGUpa0Q-27">
          <mxGeometry relative="1" as="geometry">
            <mxPoint x="130" y="635" as="targetPoint" />
          </mxGeometry>
        </mxCell>
        <mxCell id="osnPLwHDW5WN9JGUpa0Q-34" value="" style="sketch=0;outlineConnect=0;fontColor=#232F3E;gradientColor=none;fillColor=#8C4FFF;strokeColor=none;dashed=0;verticalLabelPosition=bottom;verticalAlign=top;align=center;html=1;fontSize=12;fontStyle=0;aspect=fixed;pointerEvents=1;shape=mxgraph.aws4.route_table;" vertex="1" parent="1">
          <mxGeometry x="158.95" y="660" width="30.79" height="30" as="geometry" />
        </mxCell>
        <mxCell id="osnPLwHDW5WN9JGUpa0Q-37" value="azi-prd-vpc-eshop-uatm24.autozilla.co vpc" style="sketch=0;outlineConnect=0;gradientColor=none;html=1;whiteSpace=wrap;fontSize=12;fontStyle=0;shape=mxgraph.aws4.group;grIcon=mxgraph.aws4.group_vpc;strokeColor=#879196;fillColor=none;verticalAlign=top;align=left;spacingLeft=30;fontColor=#879196;dashed=0;" vertex="1" parent="1">
          <mxGeometry x="120" y="750" width="430" height="280" as="geometry" />
        </mxCell>
        <mxCell id="osnPLwHDW5WN9JGUpa0Q-38" value="eshop-uatm24.autozilla.co subnet" style="sketch=0;outlineConnect=0;gradientColor=none;html=1;whiteSpace=wrap;fontSize=12;fontStyle=0;shape=mxgraph.aws4.group;grIcon=mxgraph.aws4.group_subnet;strokeColor=#879196;fillColor=none;verticalAlign=top;align=left;spacingLeft=30;fontColor=#879196;dashed=0;" vertex="1" parent="1">
          <mxGeometry x="160" y="780" width="350" height="230" as="geometry" />
        </mxCell>
        <mxCell id="osnPLwHDW5WN9JGUpa0Q-39" value="ap-south-1a" style="sketch=0;outlineConnect=0;gradientColor=none;html=1;whiteSpace=wrap;fontSize=12;fontStyle=0;shape=mxgraph.aws4.group;grIcon=mxgraph.aws4.group_availability_zone;strokeColor=#545B64;fillColor=none;verticalAlign=top;align=left;spacingLeft=30;fontColor=#545B64;dashed=1;" vertex="1" parent="1">
          <mxGeometry x="190" y="810" width="290" height="160" as="geometry" />
        </mxCell>
        <mxCell id="osnPLwHDW5WN9JGUpa0Q-40" value="&lt;h1 data-awsui-analytics-label=&quot;.awsui_heading-text_105ke_268sp_5&quot; class=&quot;awsui_heading_2qdw9_kiqfw_370 awsui_heading-variant-h1_2qdw9_kiqfw_381&quot;&gt;&lt;br&gt;&lt;/h1&gt;" style="sketch=0;outlineConnect=0;fontColor=#232F3E;gradientColor=none;strokeColor=#232F3E;fillColor=#ffffff;dashed=0;verticalLabelPosition=bottom;verticalAlign=top;align=center;html=1;fontSize=12;fontStyle=0;aspect=fixed;shape=mxgraph.aws4.resourceIcon;resIcon=mxgraph.aws4.internet_gateway;" vertex="1" parent="1">
          <mxGeometry x="90" y="972.5" width="45" height="45" as="geometry" />
        </mxCell>
        <mxCell id="osnPLwHDW5WN9JGUpa0Q-41" value="&lt;font style=&quot;font-size: 8px;&quot;&gt;eshop-uatm24.autozilla.co Route Table&lt;/font&gt;" style="text;html=1;align=center;verticalAlign=middle;resizable=0;points=[];autosize=1;strokeColor=none;fillColor=none;" vertex="1" parent="1">
          <mxGeometry x="180" y="987.5" width="170" height="30" as="geometry" />
        </mxCell>
        <mxCell id="osnPLwHDW5WN9JGUpa0Q-42" value="&lt;font style=&quot;font-size: 8px;&quot;&gt;eshop-uatm24.autozilla.co IG&lt;/font&gt;" style="text;html=1;align=center;verticalAlign=middle;resizable=0;points=[];autosize=1;strokeColor=none;fillColor=none;" vertex="1" parent="1">
          <mxGeometry x="50" y="1000" width="130" height="30" as="geometry" />
        </mxCell>
        <mxCell id="osnPLwHDW5WN9JGUpa0Q-43" value="azi-uat-ec2-eshop-uatm24.autozilla.co" style="sketch=0;outlineConnect=0;fontColor=#232F3E;gradientColor=none;strokeColor=#ffffff;fillColor=#232F3E;dashed=0;verticalLabelPosition=middle;verticalAlign=bottom;align=center;html=1;whiteSpace=wrap;fontSize=10;fontStyle=1;spacing=3;shape=mxgraph.aws4.productIcon;prIcon=mxgraph.aws4.ec2;" vertex="1" parent="1">
          <mxGeometry x="300" y="840" width="60" height="90" as="geometry" />
        </mxCell>
        <mxCell id="osnPLwHDW5WN9JGUpa0Q-44" style="edgeStyle=orthogonalEdgeStyle;rounded=0;orthogonalLoop=1;jettySize=auto;html=1;" edge="1" parent="1" source="osnPLwHDW5WN9JGUpa0Q-45" target="osnPLwHDW5WN9JGUpa0Q-40">
          <mxGeometry relative="1" as="geometry">
            <mxPoint x="130" y="955" as="targetPoint" />
          </mxGeometry>
        </mxCell>
        <mxCell id="osnPLwHDW5WN9JGUpa0Q-45" value="" style="sketch=0;outlineConnect=0;fontColor=#232F3E;gradientColor=none;fillColor=#8C4FFF;strokeColor=none;dashed=0;verticalLabelPosition=bottom;verticalAlign=top;align=center;html=1;fontSize=12;fontStyle=0;aspect=fixed;pointerEvents=1;shape=mxgraph.aws4.route_table;" vertex="1" parent="1">
          <mxGeometry x="158.95" y="980" width="30.79" height="30" as="geometry" />
        </mxCell>
        <mxCell id="osnPLwHDW5WN9JGUpa0Q-46" value="azi-uat-vpc-staging.autozilla.co vpc" style="sketch=0;outlineConnect=0;gradientColor=none;html=1;whiteSpace=wrap;fontSize=12;fontStyle=0;shape=mxgraph.aws4.group;grIcon=mxgraph.aws4.group_vpc;strokeColor=#879196;fillColor=none;verticalAlign=top;align=left;spacingLeft=30;fontColor=#879196;dashed=0;" vertex="1" parent="1">
          <mxGeometry x="120" y="1080" width="430" height="280" as="geometry" />
        </mxCell>
        <mxCell id="osnPLwHDW5WN9JGUpa0Q-47" value="staging.autozilla.co subnet" style="sketch=0;outlineConnect=0;gradientColor=none;html=1;whiteSpace=wrap;fontSize=12;fontStyle=0;shape=mxgraph.aws4.group;grIcon=mxgraph.aws4.group_subnet;strokeColor=#879196;fillColor=none;verticalAlign=top;align=left;spacingLeft=30;fontColor=#879196;dashed=0;" vertex="1" parent="1">
          <mxGeometry x="160" y="1110" width="350" height="230" as="geometry" />
        </mxCell>
        <mxCell id="osnPLwHDW5WN9JGUpa0Q-48" value="ap-south-1a" style="sketch=0;outlineConnect=0;gradientColor=none;html=1;whiteSpace=wrap;fontSize=12;fontStyle=0;shape=mxgraph.aws4.group;grIcon=mxgraph.aws4.group_availability_zone;strokeColor=#545B64;fillColor=none;verticalAlign=top;align=left;spacingLeft=30;fontColor=#545B64;dashed=1;" vertex="1" parent="1">
          <mxGeometry x="190" y="1140" width="290" height="160" as="geometry" />
        </mxCell>
        <mxCell id="osnPLwHDW5WN9JGUpa0Q-49" value="&lt;h1 data-awsui-analytics-label=&quot;.awsui_heading-text_105ke_268sp_5&quot; class=&quot;awsui_heading_2qdw9_kiqfw_370 awsui_heading-variant-h1_2qdw9_kiqfw_381&quot;&gt;&lt;br&gt;&lt;/h1&gt;" style="sketch=0;outlineConnect=0;fontColor=#232F3E;gradientColor=none;strokeColor=#232F3E;fillColor=#ffffff;dashed=0;verticalLabelPosition=bottom;verticalAlign=top;align=center;html=1;fontSize=12;fontStyle=0;aspect=fixed;shape=mxgraph.aws4.resourceIcon;resIcon=mxgraph.aws4.internet_gateway;" vertex="1" parent="1">
          <mxGeometry x="97.5" y="1307.5" width="35" height="35" as="geometry" />
        </mxCell>
        <mxCell id="osnPLwHDW5WN9JGUpa0Q-50" value="&lt;font style=&quot;font-size: 8px;&quot;&gt;staging.autozilla.co Route Table&lt;/font&gt;" style="text;html=1;align=center;verticalAlign=middle;resizable=0;points=[];autosize=1;strokeColor=none;fillColor=none;" vertex="1" parent="1">
          <mxGeometry x="180" y="1312.5" width="150" height="30" as="geometry" />
        </mxCell>
        <mxCell id="osnPLwHDW5WN9JGUpa0Q-51" value="&lt;font style=&quot;font-size: 8px;&quot;&gt;staging.autozilla.co IG&lt;br&gt;&lt;/font&gt;" style="text;html=1;align=center;verticalAlign=middle;resizable=0;points=[];autosize=1;strokeColor=none;fillColor=none;" vertex="1" parent="1">
          <mxGeometry x="60" y="1330" width="110" height="30" as="geometry" />
        </mxCell>
        <mxCell id="osnPLwHDW5WN9JGUpa0Q-53" style="edgeStyle=orthogonalEdgeStyle;rounded=0;orthogonalLoop=1;jettySize=auto;html=1;" edge="1" parent="1" source="osnPLwHDW5WN9JGUpa0Q-54" target="osnPLwHDW5WN9JGUpa0Q-49">
          <mxGeometry relative="1" as="geometry">
            <mxPoint x="130" y="1285" as="targetPoint" />
          </mxGeometry>
        </mxCell>
        <mxCell id="osnPLwHDW5WN9JGUpa0Q-54" value="" style="sketch=0;outlineConnect=0;fontColor=#232F3E;gradientColor=none;fillColor=#8C4FFF;strokeColor=none;dashed=0;verticalLabelPosition=bottom;verticalAlign=top;align=center;html=1;fontSize=12;fontStyle=0;aspect=fixed;pointerEvents=1;shape=mxgraph.aws4.route_table;" vertex="1" parent="1">
          <mxGeometry x="158.95" y="1310" width="30.79" height="30" as="geometry" />
        </mxCell>
        <mxCell id="osnPLwHDW5WN9JGUpa0Q-59" value="azi-dev-vpc-default" style="sketch=0;outlineConnect=0;gradientColor=none;html=1;whiteSpace=wrap;fontSize=12;fontStyle=0;shape=mxgraph.aws4.group;grIcon=mxgraph.aws4.group_vpc;strokeColor=#879196;fillColor=none;verticalAlign=top;align=left;spacingLeft=30;fontColor=#879196;dashed=0;" vertex="1" parent="1">
          <mxGeometry x="670" y="80" width="600" height="280" as="geometry" />
        </mxCell>
        <mxCell id="osnPLwHDW5WN9JGUpa0Q-60" value="subnet-997c9cf0" style="sketch=0;outlineConnect=0;gradientColor=none;html=1;whiteSpace=wrap;fontSize=12;fontStyle=0;shape=mxgraph.aws4.group;grIcon=mxgraph.aws4.group_subnet;strokeColor=#879196;fillColor=none;verticalAlign=top;align=left;spacingLeft=30;fontColor=#879196;dashed=0;" vertex="1" parent="1">
          <mxGeometry x="730" y="110" width="160" height="230" as="geometry" />
        </mxCell>
        <mxCell id="osnPLwHDW5WN9JGUpa0Q-61" value="subnet-5a0d2010" style="sketch=0;outlineConnect=0;gradientColor=none;html=1;whiteSpace=wrap;fontSize=12;fontStyle=0;shape=mxgraph.aws4.group;grIcon=mxgraph.aws4.group_subnet;strokeColor=#879196;fillColor=none;verticalAlign=top;align=left;spacingLeft=30;fontColor=#879196;dashed=0;" vertex="1" parent="1">
          <mxGeometry x="900" y="110" width="150" height="230" as="geometry" />
        </mxCell>
        <mxCell id="osnPLwHDW5WN9JGUpa0Q-62" value="subnet-328a7c49" style="sketch=0;outlineConnect=0;gradientColor=none;html=1;whiteSpace=wrap;fontSize=12;fontStyle=0;shape=mxgraph.aws4.group;grIcon=mxgraph.aws4.group_subnet;strokeColor=#879196;fillColor=none;verticalAlign=top;align=left;spacingLeft=30;fontColor=#879196;dashed=0;" vertex="1" parent="1">
          <mxGeometry x="1060" y="110" width="150" height="230" as="geometry" />
        </mxCell>
        <mxCell id="osnPLwHDW5WN9JGUpa0Q-67" style="edgeStyle=orthogonalEdgeStyle;rounded=0;orthogonalLoop=1;jettySize=auto;html=1;" edge="1" parent="1" source="osnPLwHDW5WN9JGUpa0Q-63" target="osnPLwHDW5WN9JGUpa0Q-66">
          <mxGeometry relative="1" as="geometry" />
        </mxCell>
        <mxCell id="osnPLwHDW5WN9JGUpa0Q-63" value="" style="sketch=0;outlineConnect=0;fontColor=#232F3E;gradientColor=none;fillColor=#8C4FFF;strokeColor=none;dashed=0;verticalLabelPosition=bottom;verticalAlign=top;align=center;html=1;fontSize=12;fontStyle=0;aspect=fixed;pointerEvents=1;shape=mxgraph.aws4.route_table;" vertex="1" parent="1">
          <mxGeometry x="1225" y="150" width="30.79" height="30" as="geometry" />
        </mxCell>
        <mxCell id="osnPLwHDW5WN9JGUpa0Q-66" value="&lt;h1 data-awsui-analytics-label=&quot;.awsui_heading-text_105ke_268sp_5&quot; class=&quot;awsui_heading_2qdw9_kiqfw_370 awsui_heading-variant-h1_2qdw9_kiqfw_381&quot;&gt;&lt;br&gt;&lt;/h1&gt;" style="sketch=0;outlineConnect=0;fontColor=#232F3E;gradientColor=none;strokeColor=#232F3E;fillColor=#ffffff;dashed=0;verticalLabelPosition=bottom;verticalAlign=top;align=center;html=1;fontSize=12;fontStyle=0;aspect=fixed;shape=mxgraph.aws4.resourceIcon;resIcon=mxgraph.aws4.internet_gateway;" vertex="1" parent="1">
          <mxGeometry x="1215.3899999999999" y="50" width="50" height="50" as="geometry" />
        </mxCell>
        <mxCell id="osnPLwHDW5WN9JGUpa0Q-68" value="igw-aaa242c3" style="text;html=1;align=center;verticalAlign=middle;resizable=0;points=[];autosize=1;strokeColor=none;fillColor=none;" vertex="1" parent="1">
          <mxGeometry x="1250" y="50" width="100" height="30" as="geometry" />
        </mxCell>
        <mxCell id="osnPLwHDW5WN9JGUpa0Q-69" value="rtb-4827c421" style="text;html=1;align=center;verticalAlign=middle;resizable=0;points=[];autosize=1;strokeColor=none;fillColor=none;" vertex="1" parent="1">
          <mxGeometry x="1209.6" y="180" width="90" height="30" as="geometry" />
        </mxCell>
        <mxCell id="osnPLwHDW5WN9JGUpa0Q-77" value="Autozilla-PUB3" style="sketch=0;outlineConnect=0;gradientColor=none;html=1;whiteSpace=wrap;fontSize=12;fontStyle=0;shape=mxgraph.aws4.group;grIcon=mxgraph.aws4.group_subnet;strokeColor=#879196;fillColor=none;verticalAlign=top;align=left;spacingLeft=30;fontColor=#879196;dashed=0;" vertex="1" parent="1">
          <mxGeometry x="720" y="500" width="190" height="230" as="geometry" />
        </mxCell>
        <mxCell id="osnPLwHDW5WN9JGUpa0Q-78" value="AutozillaPUB2" style="sketch=0;outlineConnect=0;gradientColor=none;html=1;whiteSpace=wrap;fontSize=12;fontStyle=0;shape=mxgraph.aws4.group;grIcon=mxgraph.aws4.group_subnet;strokeColor=#879196;fillColor=none;verticalAlign=top;align=left;spacingLeft=30;fontColor=#879196;dashed=0;" vertex="1" parent="1">
          <mxGeometry x="940" y="500" width="190" height="230" as="geometry" />
        </mxCell>
        <mxCell id="osnPLwHDW5WN9JGUpa0Q-79" value="Autozilla-Private1" style="sketch=0;outlineConnect=0;gradientColor=none;html=1;whiteSpace=wrap;fontSize=12;fontStyle=0;shape=mxgraph.aws4.group;grIcon=mxgraph.aws4.group_subnet;strokeColor=#879196;fillColor=none;verticalAlign=top;align=left;spacingLeft=30;fontColor=#879196;dashed=0;" vertex="1" parent="1">
          <mxGeometry x="1154.6" y="500" width="200" height="230" as="geometry" />
        </mxCell>
        <mxCell id="osnPLwHDW5WN9JGUpa0Q-84" value="ap-south-1b" style="sketch=0;outlineConnect=0;gradientColor=none;html=1;whiteSpace=wrap;fontSize=12;fontStyle=0;shape=mxgraph.aws4.group;grIcon=mxgraph.aws4.group_availability_zone;strokeColor=#545B64;fillColor=none;verticalAlign=top;align=left;spacingLeft=30;fontColor=#545B64;dashed=1;" vertex="1" parent="1">
          <mxGeometry x="680" y="972.5" width="680" height="707.5" as="geometry" />
        </mxCell>
        <mxCell id="osnPLwHDW5WN9JGUpa0Q-85" value="Autozilla-Pub4" style="sketch=0;outlineConnect=0;gradientColor=none;html=1;whiteSpace=wrap;fontSize=12;fontStyle=0;shape=mxgraph.aws4.group;grIcon=mxgraph.aws4.group_subnet;strokeColor=#879196;fillColor=none;verticalAlign=top;align=left;spacingLeft=30;fontColor=#879196;dashed=0;" vertex="1" parent="1">
          <mxGeometry x="700" y="1002.5" width="290" height="197.5" as="geometry" />
        </mxCell>
        <mxCell id="osnPLwHDW5WN9JGUpa0Q-110" style="edgeStyle=orthogonalEdgeStyle;rounded=0;orthogonalLoop=1;jettySize=auto;html=1;" edge="1" parent="1" source="osnPLwHDW5WN9JGUpa0Q-86" target="osnPLwHDW5WN9JGUpa0Q-90">
          <mxGeometry relative="1" as="geometry">
            <Array as="points">
              <mxPoint x="1035" y="840" />
            </Array>
          </mxGeometry>
        </mxCell>
        <mxCell id="osnPLwHDW5WN9JGUpa0Q-86" value="Autozilla-PUB1" style="sketch=0;outlineConnect=0;gradientColor=none;html=1;whiteSpace=wrap;fontSize=12;fontStyle=0;shape=mxgraph.aws4.group;grIcon=mxgraph.aws4.group_subnet;strokeColor=#879196;fillColor=none;verticalAlign=top;align=left;spacingLeft=30;fontColor=#879196;dashed=0;" vertex="1" parent="1">
          <mxGeometry x="697.5" y="1220" width="640" height="440" as="geometry" />
        </mxCell>
        <mxCell id="osnPLwHDW5WN9JGUpa0Q-87" value="Autozilla-Private2" style="sketch=0;outlineConnect=0;gradientColor=none;html=1;whiteSpace=wrap;fontSize=12;fontStyle=0;shape=mxgraph.aws4.group;grIcon=mxgraph.aws4.group_subnet;strokeColor=#879196;fillColor=none;verticalAlign=top;align=left;spacingLeft=30;fontColor=#879196;dashed=0;" vertex="1" parent="1">
          <mxGeometry x="1060" y="1002.5" width="285" height="197.5" as="geometry" />
        </mxCell>
        <mxCell id="osnPLwHDW5WN9JGUpa0Q-88" value="" style="sketch=0;outlineConnect=0;fontColor=#232F3E;gradientColor=none;fillColor=#8C4FFF;strokeColor=none;dashed=0;verticalLabelPosition=bottom;verticalAlign=top;align=center;html=1;fontSize=12;fontStyle=0;aspect=fixed;pointerEvents=1;shape=mxgraph.aws4.endpoints;" vertex="1" parent="1">
          <mxGeometry x="1360" y="911" width="78" height="78" as="geometry" />
        </mxCell>
        <mxCell id="osnPLwHDW5WN9JGUpa0Q-90" value="&lt;h1 data-awsui-analytics-label=&quot;.awsui_heading-text_105ke_268sp_5&quot; class=&quot;awsui_heading_2qdw9_kiqfw_370 awsui_heading-variant-h1_2qdw9_kiqfw_381&quot;&gt;&lt;br&gt;&lt;/h1&gt;" style="sketch=0;outlineConnect=0;fontColor=#232F3E;gradientColor=none;strokeColor=#232F3E;fillColor=#ffffff;dashed=0;verticalLabelPosition=bottom;verticalAlign=top;align=center;html=1;fontSize=12;fontStyle=0;aspect=fixed;shape=mxgraph.aws4.resourceIcon;resIcon=mxgraph.aws4.internet_gateway;" vertex="1" parent="1">
          <mxGeometry x="1354" y="795" width="90" height="90" as="geometry" />
        </mxCell>
        <mxCell id="osnPLwHDW5WN9JGUpa0Q-107" style="edgeStyle=orthogonalEdgeStyle;rounded=0;orthogonalLoop=1;jettySize=auto;html=1;" edge="1" parent="1" source="osnPLwHDW5WN9JGUpa0Q-91" target="osnPLwHDW5WN9JGUpa0Q-88">
          <mxGeometry relative="1" as="geometry">
            <Array as="points">
              <mxPoint x="1320" y="950" />
            </Array>
          </mxGeometry>
        </mxCell>
        <mxCell id="osnPLwHDW5WN9JGUpa0Q-91" value="rtb-0322b0f18da83c5b3" style="sketch=0;outlineConnect=0;fontColor=#232F3E;gradientColor=none;strokeColor=#232F3E;fillColor=#ffffff;dashed=0;verticalLabelPosition=bottom;verticalAlign=top;align=center;html=1;fontSize=12;fontStyle=0;aspect=fixed;shape=mxgraph.aws4.resourceIcon;resIcon=mxgraph.aws4.route_table;" vertex="1" parent="1">
          <mxGeometry x="1289" y="665" width="65" height="65" as="geometry" />
        </mxCell>
        <mxCell id="osnPLwHDW5WN9JGUpa0Q-92" value="rtb-Autozilla-RouteTable1" style="sketch=0;outlineConnect=0;fontColor=#232F3E;gradientColor=none;strokeColor=#232F3E;fillColor=#ffffff;dashed=0;verticalLabelPosition=bottom;verticalAlign=top;align=center;html=1;fontSize=12;fontStyle=0;aspect=fixed;shape=mxgraph.aws4.resourceIcon;resIcon=mxgraph.aws4.route_table;" vertex="1" parent="1">
          <mxGeometry x="1299.6" y="1220" width="37.5" height="37.5" as="geometry" />
        </mxCell>
        <mxCell id="osnPLwHDW5WN9JGUpa0Q-108" style="edgeStyle=orthogonalEdgeStyle;rounded=0;orthogonalLoop=1;jettySize=auto;html=1;" edge="1" parent="1" source="osnPLwHDW5WN9JGUpa0Q-102" target="osnPLwHDW5WN9JGUpa0Q-88">
          <mxGeometry relative="1" as="geometry">
            <Array as="points">
              <mxPoint x="1320" y="950" />
            </Array>
          </mxGeometry>
        </mxCell>
        <mxCell id="osnPLwHDW5WN9JGUpa0Q-102" value="rtb-0322b0f18da83c5b3" style="sketch=0;outlineConnect=0;fontColor=#232F3E;gradientColor=none;strokeColor=#232F3E;fillColor=#ffffff;dashed=0;verticalLabelPosition=bottom;verticalAlign=top;align=center;html=1;fontSize=12;fontStyle=0;aspect=fixed;shape=mxgraph.aws4.resourceIcon;resIcon=mxgraph.aws4.route_table;" vertex="1" parent="1">
          <mxGeometry x="1307.5" y="1002.5" width="37.5" height="37.5" as="geometry" />
        </mxCell>
        <mxCell id="osnPLwHDW5WN9JGUpa0Q-109" style="edgeStyle=orthogonalEdgeStyle;rounded=0;orthogonalLoop=1;jettySize=auto;html=1;" edge="1" parent="1" source="osnPLwHDW5WN9JGUpa0Q-104" target="osnPLwHDW5WN9JGUpa0Q-90">
          <mxGeometry relative="1" as="geometry">
            <Array as="points">
              <mxPoint x="1100" y="840" />
            </Array>
          </mxGeometry>
        </mxCell>
        <mxCell id="osnPLwHDW5WN9JGUpa0Q-104" value="rtb-Autozilla-RouteTable1" style="sketch=0;outlineConnect=0;fontColor=#232F3E;gradientColor=none;strokeColor=#232F3E;fillColor=#ffffff;dashed=0;verticalLabelPosition=bottom;verticalAlign=top;align=center;html=1;fontSize=12;fontStyle=0;aspect=fixed;shape=mxgraph.aws4.resourceIcon;resIcon=mxgraph.aws4.route_table;" vertex="1" parent="1">
          <mxGeometry x="1070" y="670" width="60" height="60" as="geometry" />
        </mxCell>
        <mxCell id="osnPLwHDW5WN9JGUpa0Q-112" style="edgeStyle=orthogonalEdgeStyle;rounded=0;orthogonalLoop=1;jettySize=auto;html=1;" edge="1" parent="1" source="osnPLwHDW5WN9JGUpa0Q-105" target="osnPLwHDW5WN9JGUpa0Q-90">
          <mxGeometry relative="1" as="geometry">
            <Array as="points">
              <mxPoint x="970" y="840" />
            </Array>
          </mxGeometry>
        </mxCell>
        <mxCell id="osnPLwHDW5WN9JGUpa0Q-105" value="rtb-Autozilla-RouteTable1" style="sketch=0;outlineConnect=0;fontColor=#232F3E;gradientColor=none;strokeColor=#232F3E;fillColor=#ffffff;dashed=0;verticalLabelPosition=bottom;verticalAlign=top;align=center;html=1;fontSize=12;fontStyle=0;aspect=fixed;shape=mxgraph.aws4.resourceIcon;resIcon=mxgraph.aws4.route_table;" vertex="1" parent="1">
          <mxGeometry x="951.25" y="1002.5" width="37.5" height="37.5" as="geometry" />
        </mxCell>
        <mxCell id="osnPLwHDW5WN9JGUpa0Q-111" style="edgeStyle=orthogonalEdgeStyle;rounded=0;orthogonalLoop=1;jettySize=auto;html=1;" edge="1" parent="1" source="osnPLwHDW5WN9JGUpa0Q-106" target="osnPLwHDW5WN9JGUpa0Q-90">
          <mxGeometry relative="1" as="geometry">
            <Array as="points">
              <mxPoint x="880" y="840" />
            </Array>
          </mxGeometry>
        </mxCell>
        <mxCell id="osnPLwHDW5WN9JGUpa0Q-106" value="rtb-Autozilla-RouteTable1" style="sketch=0;outlineConnect=0;fontColor=#232F3E;gradientColor=none;strokeColor=#232F3E;fillColor=#ffffff;dashed=0;verticalLabelPosition=bottom;verticalAlign=top;align=center;html=1;fontSize=12;fontStyle=0;aspect=fixed;shape=mxgraph.aws4.resourceIcon;resIcon=mxgraph.aws4.route_table;" vertex="1" parent="1">
          <mxGeometry x="850" y="670" width="60" height="60" as="geometry" />
        </mxCell>
        <mxCell id="osnPLwHDW5WN9JGUpa0Q-113" value="VPC Gateway Endpoint" style="text;html=1;align=center;verticalAlign=middle;resizable=0;points=[];autosize=1;strokeColor=none;fillColor=none;" vertex="1" parent="1">
          <mxGeometry x="1355" y="987.5" width="150" height="30" as="geometry" />
        </mxCell>
        <mxCell id="osnPLwHDW5WN9JGUpa0Q-114" value="" style="endArrow=none;dashed=1;html=1;rounded=0;" edge="1" parent="1" target="osnPLwHDW5WN9JGUpa0Q-88">
          <mxGeometry width="50" height="50" relative="1" as="geometry">
            <mxPoint x="1190" y="840" as="sourcePoint" />
            <mxPoint x="1080" y="830" as="targetPoint" />
            <Array as="points">
              <mxPoint x="1190" y="950" />
            </Array>
          </mxGeometry>
        </mxCell>
        <mxCell id="osnPLwHDW5WN9JGUpa0Q-127" value="&lt;div class=&quot;treeTableWithUtilsNodeContainerChild&quot;&gt;&lt;div class=&quot;treeTableWithUtilsNodeChildWithParent&quot;&gt;&lt;/div&gt;&lt;/div&gt;&lt;div class=&quot;awsui_root_18wu0_1lw09_916 awsui_box_18wu0_1lw09_168 awsui_d-inline_18wu0_1lw09_898 awsui_color-default_18wu0_1lw09_168 awsui_font-size-default_18wu0_1lw09_184 awsui_font-weight-default_18wu0_1lw09_224&quot;&gt;&lt;a href=&quot;https://ap-south-1.console.aws.amazon.com/rds/home?region=ap-south-1#database:id=autozilla-rds;is-cluster=false&quot; data-analytics-funnel-value=&quot;link:rds-console-rgi:&quot; class=&quot;awsui_link_4c84z_mbpa7_141 awsui_variant-primary_4c84z_mbpa7_242 awsui_font-size-body-m_4c84z_mbpa7_471&quot; data-awsui-analytics=&quot;{&amp;quot;action&amp;quot;:&amp;quot;click&amp;quot;,&amp;quot;detail&amp;quot;:{&amp;quot;label&amp;quot;:{&amp;quot;root&amp;quot;:&amp;quot;self&amp;quot;},&amp;quot;external&amp;quot;:&amp;quot;false&amp;quot;,&amp;quot;href&amp;quot;:&amp;quot;#database:id=autozilla-rds;is-cluster=false&amp;quot;},&amp;quot;component&amp;quot;:{&amp;quot;name&amp;quot;:&amp;quot;awsui.Link&amp;quot;,&amp;quot;label&amp;quot;:{&amp;quot;root&amp;quot;:&amp;quot;self&amp;quot;},&amp;quot;properties&amp;quot;:{&amp;quot;variant&amp;quot;:&amp;quot;secondary&amp;quot;}}}&quot; data-db-instance-id=&quot;autozilla-rds&quot; data-testid=&quot;database-identifier&quot; data-analytics-type=&quot;eventDetail&quot; data-analytics=&quot;{&amp;quot;eventDetailName&amp;quot;:&amp;quot;DbListTableDbNameColumn&amp;quot;,&amp;quot;role&amp;quot;:&amp;quot;Instance&amp;quot;}&quot; id=&quot;link-self:rds-console-rgj:&quot;&gt;&lt;span&gt;&lt;span class=&quot;&quot;&gt;autozilla-rds&lt;/span&gt;&lt;/span&gt;&lt;/a&gt;&lt;/div&gt;&lt;span data-cy=&quot;blue-db-badge&quot; style=&quot;flex-shrink: 0;&quot;&gt;&lt;span class=&quot;awsui_root_18wu0_1lw09_916 awsui_box_18wu0_1lw09_168 awsui_m-left-xs_18wu0_1lw09_740 awsui_color-default_18wu0_1lw09_168 awsui_font-size-default_18wu0_1lw09_184 awsui_font-weight-default_18wu0_1lw09_224&quot;&gt;&lt;/span&gt;&lt;/span&gt;" style="sketch=0;outlineConnect=0;fontColor=#232F3E;gradientColor=none;strokeColor=#ffffff;fillColor=#232F3E;dashed=0;verticalLabelPosition=middle;verticalAlign=bottom;align=center;html=1;whiteSpace=wrap;fontSize=10;fontStyle=1;spacing=3;shape=mxgraph.aws4.productIcon;prIcon=mxgraph.aws4.rds;" vertex="1" parent="1">
          <mxGeometry x="775" y="845" width="80" height="100" as="geometry" />
        </mxCell>
        <mxCell id="osnPLwHDW5WN9JGUpa0Q-130" value="azi-dev-ec2-Autozilla_Demo" style="sketch=0;outlineConnect=0;fontColor=#232F3E;gradientColor=none;strokeColor=#ffffff;fillColor=#232F3E;dashed=0;verticalLabelPosition=middle;verticalAlign=bottom;align=center;html=1;whiteSpace=wrap;fontSize=10;fontStyle=1;spacing=3;shape=mxgraph.aws4.productIcon;prIcon=mxgraph.aws4.ec2;" vertex="1" parent="1">
          <mxGeometry x="960" y="1246.88" width="60" height="90" as="geometry" />
        </mxCell>
        <mxCell id="osnPLwHDW5WN9JGUpa0Q-131" value="azi-uat-ec2-Autozilla_UAT_APP" style="sketch=0;outlineConnect=0;fontColor=#232F3E;gradientColor=none;strokeColor=#ffffff;fillColor=#232F3E;dashed=0;verticalLabelPosition=middle;verticalAlign=bottom;align=center;html=1;whiteSpace=wrap;fontSize=10;fontStyle=1;spacing=3;shape=mxgraph.aws4.productIcon;prIcon=mxgraph.aws4.ec2;" vertex="1" parent="1">
          <mxGeometry x="1080" y="1246.88" width="60" height="90" as="geometry" />
        </mxCell>
        <mxCell id="osnPLwHDW5WN9JGUpa0Q-132" value="azi-prd-ec2-Autozilla_VPC_OpenVPN_5 License-Server2" style="sketch=0;outlineConnect=0;fontColor=#232F3E;gradientColor=none;strokeColor=#ffffff;fillColor=#232F3E;dashed=0;verticalLabelPosition=middle;verticalAlign=bottom;align=center;html=1;whiteSpace=wrap;fontSize=10;fontStyle=1;spacing=3;shape=mxgraph.aws4.productIcon;prIcon=mxgraph.aws4.ec2;" vertex="1" parent="1">
          <mxGeometry x="1205.3899999999999" y="1246.88" width="60" height="96.25" as="geometry" />
        </mxCell>
        <mxCell id="osnPLwHDW5WN9JGUpa0Q-133" value="azi-uat-ec2-Autozilla_UAT_DB" style="sketch=0;outlineConnect=0;fontColor=#232F3E;gradientColor=none;strokeColor=#ffffff;fillColor=#232F3E;dashed=0;verticalLabelPosition=middle;verticalAlign=bottom;align=center;html=1;whiteSpace=wrap;fontSize=10;fontStyle=1;spacing=3;shape=mxgraph.aws4.productIcon;prIcon=mxgraph.aws4.ec2;" vertex="1" parent="1">
          <mxGeometry x="960" y="1347.5" width="60" height="90" as="geometry" />
        </mxCell>
        <mxCell id="osnPLwHDW5WN9JGUpa0Q-134" value="azi-prd-ec2-info.autozilla.co-(website)" style="sketch=0;outlineConnect=0;fontColor=#232F3E;gradientColor=none;strokeColor=#ffffff;fillColor=#232F3E;dashed=0;verticalLabelPosition=middle;verticalAlign=bottom;align=center;html=1;whiteSpace=wrap;fontSize=10;fontStyle=1;spacing=3;shape=mxgraph.aws4.productIcon;prIcon=mxgraph.aws4.ec2;" vertex="1" parent="1">
          <mxGeometry x="1080" y="1347.5" width="60" height="96.25" as="geometry" />
        </mxCell>
        <mxCell id="osnPLwHDW5WN9JGUpa0Q-135" value="azi-prd-ec2-Grafana_Dashboards" style="sketch=0;outlineConnect=0;fontColor=#232F3E;gradientColor=none;strokeColor=#ffffff;fillColor=#232F3E;dashed=0;verticalLabelPosition=middle;verticalAlign=bottom;align=center;html=1;whiteSpace=wrap;fontSize=10;fontStyle=1;spacing=3;shape=mxgraph.aws4.productIcon;prIcon=mxgraph.aws4.ec2;" vertex="1" parent="1">
          <mxGeometry x="1205.3899999999999" y="1347.5" width="60" height="90" as="geometry" />
        </mxCell>
        <mxCell id="osnPLwHDW5WN9JGUpa0Q-136" value="azi-prd-ec2-Elastic_search_prd" style="sketch=0;outlineConnect=0;fontColor=#232F3E;gradientColor=none;strokeColor=#ffffff;fillColor=#232F3E;dashed=0;verticalLabelPosition=middle;verticalAlign=bottom;align=center;html=1;whiteSpace=wrap;fontSize=10;fontStyle=1;spacing=3;shape=mxgraph.aws4.productIcon;prIcon=mxgraph.aws4.ec2;" vertex="1" parent="1">
          <mxGeometry x="960" y="1448" width="60" height="90" as="geometry" />
        </mxCell>
        <mxCell id="osnPLwHDW5WN9JGUpa0Q-137" value="azi-prd-ec2-app.autozilla.co-(POS PRD)" style="sketch=0;outlineConnect=0;fontColor=#232F3E;gradientColor=none;strokeColor=#ffffff;fillColor=#232F3E;dashed=0;verticalLabelPosition=middle;verticalAlign=bottom;align=center;html=1;whiteSpace=wrap;fontSize=10;fontStyle=1;spacing=3;shape=mxgraph.aws4.productIcon;prIcon=mxgraph.aws4.ec2;" vertex="1" parent="1">
          <mxGeometry x="1080" y="1448" width="60" height="102" as="geometry" />
        </mxCell>
        <mxCell id="osnPLwHDW5WN9JGUpa0Q-138" value="azi-dev-ec2-POS-8" style="sketch=0;outlineConnect=0;fontColor=#232F3E;gradientColor=none;strokeColor=#ffffff;fillColor=#232F3E;dashed=0;verticalLabelPosition=middle;verticalAlign=bottom;align=center;html=1;whiteSpace=wrap;fontSize=10;fontStyle=1;spacing=3;shape=mxgraph.aws4.productIcon;prIcon=mxgraph.aws4.ec2;" vertex="1" parent="1">
          <mxGeometry x="1205.3899999999999" y="1448" width="60" height="90" as="geometry" />
        </mxCell>
        <mxCell id="osnPLwHDW5WN9JGUpa0Q-139" value="azi-dev-ec2-Elastic_search_demo" style="sketch=0;outlineConnect=0;fontColor=#232F3E;gradientColor=none;strokeColor=#ffffff;fillColor=#232F3E;dashed=0;verticalLabelPosition=middle;verticalAlign=bottom;align=center;html=1;whiteSpace=wrap;fontSize=10;fontStyle=1;spacing=3;shape=mxgraph.aws4.productIcon;prIcon=mxgraph.aws4.ec2;" vertex="1" parent="1">
          <mxGeometry x="960" y="1550" width="60" height="90" as="geometry" />
        </mxCell>
        <mxCell id="osnPLwHDW5WN9JGUpa0Q-140" value="azi-uat-ec2-Elastic_search_uat" style="sketch=0;outlineConnect=0;fontColor=#232F3E;gradientColor=none;strokeColor=#ffffff;fillColor=#232F3E;dashed=0;verticalLabelPosition=middle;verticalAlign=bottom;align=center;html=1;whiteSpace=wrap;fontSize=10;fontStyle=1;spacing=3;shape=mxgraph.aws4.productIcon;prIcon=mxgraph.aws4.ec2;" vertex="1" parent="1">
          <mxGeometry x="1080" y="1550" width="60" height="90" as="geometry" />
        </mxCell>
        <mxCell id="osnPLwHDW5WN9JGUpa0Q-141" value="Open_AI_24_07_2024" style="sketch=0;outlineConnect=0;fontColor=#232F3E;gradientColor=none;strokeColor=#ffffff;fillColor=#232F3E;dashed=0;verticalLabelPosition=middle;verticalAlign=bottom;align=center;html=1;whiteSpace=wrap;fontSize=10;fontStyle=1;spacing=3;shape=mxgraph.aws4.productIcon;prIcon=mxgraph.aws4.ec2;" vertex="1" parent="1">
          <mxGeometry x="1205.3899999999999" y="1550" width="60" height="82" as="geometry" />
        </mxCell>
        <mxCell id="osnPLwHDW5WN9JGUpa0Q-144" value="Application Load Balancer" style="sketch=0;outlineConnect=0;fontColor=#232F3E;gradientColor=none;strokeColor=#ffffff;fillColor=#232F3E;dashed=0;verticalLabelPosition=middle;verticalAlign=bottom;align=center;html=1;whiteSpace=wrap;fontSize=10;fontStyle=1;spacing=3;shape=mxgraph.aws4.productIcon;prIcon=mxgraph.aws4.application_load_balancer;" vertex="1" parent="1">
          <mxGeometry x="971.25" y="600" width="48.75" height="90" as="geometry" />
        </mxCell>
        <mxCell id="osnPLwHDW5WN9JGUpa0Q-147" value="" style="shape=flexArrow;endArrow=classic;html=1;rounded=0;fillColor=#33FFFF;" edge="1" parent="1" source="osnPLwHDW5WN9JGUpa0Q-144" target="osnPLwHDW5WN9JGUpa0Q-86">
          <mxGeometry width="50" height="50" relative="1" as="geometry">
            <mxPoint x="980" y="780" as="sourcePoint" />
            <mxPoint x="1030" y="730" as="targetPoint" />
          </mxGeometry>
        </mxCell>
        <mxCell id="osnPLwHDW5WN9JGUpa0Q-148" value="" style="rounded=0;whiteSpace=wrap;html=1;" vertex="1" parent="1">
          <mxGeometry x="100" y="1400" width="540" height="170" as="geometry" />
        </mxCell>
        <mxCell id="osnPLwHDW5WN9JGUpa0Q-152" value="&lt;a href=&quot;https://ap-south-1.console.aws.amazon.com/s3/buckets/autozilla-alb-logs?region=ap-south-1&quot; data-analytics-funnel-value=&quot;link134-1733828821205-5258&quot; data-awsui-analytics=&quot;{&amp;quot;action&amp;quot;:&amp;quot;click&amp;quot;,&amp;quot;detail&amp;quot;:{&amp;quot;label&amp;quot;:{&amp;quot;root&amp;quot;:&amp;quot;self&amp;quot;},&amp;quot;external&amp;quot;:&amp;quot;false&amp;quot;,&amp;quot;href&amp;quot;:&amp;quot;https://ap-south-1.console.aws.amazon.com/s3/buckets/autozilla-alb-logs?region=ap-south-1&amp;quot;},&amp;quot;component&amp;quot;:{&amp;quot;name&amp;quot;:&amp;quot;awsui.Link&amp;quot;,&amp;quot;label&amp;quot;:{&amp;quot;root&amp;quot;:&amp;quot;self&amp;quot;},&amp;quot;properties&amp;quot;:{&amp;quot;variant&amp;quot;:&amp;quot;secondary&amp;quot;}}}&quot; class=&quot;awsui_link_4c84z_qfgyb_141 bucket-name awsui_variant-primary_4c84z_qfgyb_245 awsui_font-size-body-m_4c84z_qfgyb_474&quot; id=&quot;link-self135-1733828821205-1864&quot;&gt;autozilla-alb-logs&lt;/a&gt;" style="sketch=0;outlineConnect=0;fontColor=#232F3E;gradientColor=none;strokeColor=#ffffff;fillColor=#232F3E;dashed=0;verticalLabelPosition=middle;verticalAlign=bottom;align=center;html=1;whiteSpace=wrap;fontSize=10;fontStyle=1;spacing=3;shape=mxgraph.aws4.productIcon;prIcon=mxgraph.aws4.s3;" vertex="1" parent="1">
          <mxGeometry x="135" y="1410" width="45" height="70" as="geometry" />
        </mxCell>
        <mxCell id="osnPLwHDW5WN9JGUpa0Q-153" value="&lt;a href=&quot;https://ap-south-1.console.aws.amazon.com/s3/buckets/autozilla-pipeline-artifact?region=ap-south-1&quot; data-analytics-funnel-value=&quot;link146-1733828822222-3461&quot; data-awsui-analytics=&quot;{&amp;quot;action&amp;quot;:&amp;quot;click&amp;quot;,&amp;quot;detail&amp;quot;:{&amp;quot;label&amp;quot;:{&amp;quot;root&amp;quot;:&amp;quot;self&amp;quot;},&amp;quot;external&amp;quot;:&amp;quot;false&amp;quot;,&amp;quot;href&amp;quot;:&amp;quot;https://ap-south-1.console.aws.amazon.com/s3/buckets/autozilla-pipeline-artifact?region=ap-south-1&amp;quot;},&amp;quot;component&amp;quot;:{&amp;quot;name&amp;quot;:&amp;quot;awsui.Link&amp;quot;,&amp;quot;label&amp;quot;:{&amp;quot;root&amp;quot;:&amp;quot;self&amp;quot;},&amp;quot;properties&amp;quot;:{&amp;quot;variant&amp;quot;:&amp;quot;secondary&amp;quot;}}}&quot; class=&quot;awsui_link_4c84z_qfgyb_141 bucket-name awsui_variant-primary_4c84z_qfgyb_245 awsui_font-size-body-m_4c84z_qfgyb_474&quot; id=&quot;link-self147-1733828822222-8144&quot;&gt;autozilla-pipeline-artifact&lt;/a&gt;" style="sketch=0;outlineConnect=0;fontColor=#232F3E;gradientColor=none;strokeColor=#ffffff;fillColor=#232F3E;dashed=0;verticalLabelPosition=middle;verticalAlign=bottom;align=center;html=1;whiteSpace=wrap;fontSize=10;fontStyle=1;spacing=3;shape=mxgraph.aws4.productIcon;prIcon=mxgraph.aws4.s3;" vertex="1" parent="1">
          <mxGeometry x="189.74" y="1410" width="45" height="70" as="geometry" />
        </mxCell>
        <mxCell id="osnPLwHDW5WN9JGUpa0Q-154" value="&lt;span data-awsui-analytics-label=&quot;.awsui_native-input_13tpe_9w8pd_6&quot; class=&quot;awsui_wrapper_1wepg_1vmnx_162 awsui_radio_1mabk_i06od_177&quot;&gt;&lt;span data-awsui-analytics=&quot;{&amp;quot;action&amp;quot;:&amp;quot;select&amp;quot;,&amp;quot;detail&amp;quot;:{&amp;quot;label&amp;quot;:&amp;quot;.awsui_native-input_13tpe_9w8pd_6&amp;quot;}}&quot; class=&quot;awsui_label-wrapper_1wepg_1vmnx_168&quot;&gt;&lt;span class=&quot;awsui_control_1wepg_1vmnx_202 awsui_radio-control_1mabk_i06od_189&quot;&gt;&lt;svg aria-hidden=&quot;true&quot; viewBox=&quot;0 0 100 100&quot;&gt;&lt;/svg&gt;&lt;/span&gt;&lt;/span&gt;&lt;/span&gt;&lt;table aria-labelledby=&quot;heading28-1733828817274-3932&quot; data-analytics-task-interaction-id=&quot;23-1733828817273-5364&quot; data-analytics-performance-mark=&quot;22-1733828817273-8168&quot; aria-rowcount=&quot;19&quot; role=&quot;table&quot; class=&quot;awsui_table_wih1l_1v07r_198 awsui_table-layout-fixed_wih1l_1v07r_204 awsui-context-compact-table&quot;&gt;&lt;tbody&gt;&lt;tr aria-rowindex=&quot;5&quot; data-selection-item=&quot;item&quot; class=&quot;awsui_row_wih1l_1v07r_356&quot;&gt;&lt;td class=&quot;awsui_body-cell_c6tup_et2x0_148 awsui_is-visual-refresh_c6tup_et2x0_267 awsui_selection-control_wih1l_1v07r_279 awsui_has-selection_c6tup_et2x0_445&quot;&gt;&lt;div class=&quot;awsui_body-cell-content_c6tup_et2x0_156&quot;&gt;&lt;label data-awsui-analytics=&quot;{&amp;quot;detail&amp;quot;:{&amp;quot;position&amp;quot;:&amp;quot;4&amp;quot;,&amp;quot;item&amp;quot;:&amp;quot;autozilla-ssm-logs&amp;quot;}}&quot; title=&quot;Table Selection Select autozilla-ssm-logs&quot; aria-label=&quot;Table Selection Select autozilla-ssm-logs&quot; class=&quot;awsui_label_1s55x_1iiee_145 awsui_root_1s55x_1iiee_141&quot; for=&quot;104-1733828820878-8544&quot;&gt;&lt;span data-awsui-analytics-label=&quot;.awsui_native-input_13tpe_9w8pd_6&quot; class=&quot;awsui_wrapper_1wepg_1vmnx_162 awsui_radio_1mabk_i06od_177&quot;&gt;&lt;span data-awsui-analytics=&quot;{&amp;quot;action&amp;quot;:&amp;quot;select&amp;quot;,&amp;quot;detail&amp;quot;:{&amp;quot;label&amp;quot;:&amp;quot;.awsui_native-input_13tpe_9w8pd_6&amp;quot;}}&quot; class=&quot;awsui_label-wrapper_1wepg_1vmnx_168&quot;&gt;&lt;span class=&quot;awsui_control_1wepg_1vmnx_202 awsui_radio-control_1mabk_i06od_189&quot;&gt;&lt;/span&gt;&lt;span class=&quot;awsui_content_1wepg_1vmnx_141 awsui_empty-content_1wepg_1vmnx_179&quot;&gt;&lt;/span&gt;&lt;/span&gt;&lt;/span&gt;&lt;/label&gt;&lt;span aria-hidden=&quot;true&quot; class=&quot;awsui_stud_1s55x_1iiee_159&quot;&gt;&lt;/span&gt;&lt;/div&gt;&lt;br&gt;&lt;/td&gt;&lt;td data-awsui-analytics=&quot;{&amp;quot;component&amp;quot;:{&amp;quot;innerContext&amp;quot;:{&amp;quot;position&amp;quot;:&amp;quot;4,1&amp;quot;,&amp;quot;columnId&amp;quot;:&amp;quot;Name&amp;quot;,&amp;quot;columnLabel&amp;quot;:{&amp;quot;selector&amp;quot;:&amp;quot;table thead tr th:nth-child(2)&amp;quot;,&amp;quot;root&amp;quot;:&amp;quot;component&amp;quot;},&amp;quot;item&amp;quot;:&amp;quot;autozilla-ssm-logs&amp;quot;}}}&quot; class=&quot;awsui_body-cell_c6tup_et2x0_148 awsui_body-cell-wrap_c6tup_et2x0_253 awsui_is-visual-refresh_c6tup_et2x0_267 awsui_has-selection_c6tup_et2x0_445 awsui_resizable-columns_c6tup_et2x0_1092&quot;&gt;&lt;div class=&quot;awsui_body-cell-content_c6tup_et2x0_156&quot;&gt;&lt;a href=&quot;https://ap-south-1.console.aws.amazon.com/s3/buckets/autozilla-ssm-logs?region=ap-south-1&quot; data-analytics-funnel-value=&quot;link152-1733828822226-7976&quot; data-awsui-analytics=&quot;{&amp;quot;action&amp;quot;:&amp;quot;click&amp;quot;,&amp;quot;detail&amp;quot;:{&amp;quot;label&amp;quot;:{&amp;quot;root&amp;quot;:&amp;quot;self&amp;quot;},&amp;quot;external&amp;quot;:&amp;quot;false&amp;quot;,&amp;quot;href&amp;quot;:&amp;quot;https://ap-south-1.console.aws.amazon.com/s3/buckets/autozilla-ssm-logs?region=ap-south-1&amp;quot;},&amp;quot;component&amp;quot;:{&amp;quot;name&amp;quot;:&amp;quot;awsui.Link&amp;quot;,&amp;quot;label&amp;quot;:{&amp;quot;root&amp;quot;:&amp;quot;self&amp;quot;},&amp;quot;properties&amp;quot;:{&amp;quot;variant&amp;quot;:&amp;quot;secondary&amp;quot;}}}&quot; class=&quot;awsui_link_4c84z_qfgyb_141 bucket-name awsui_variant-primary_4c84z_qfgyb_245 awsui_font-size-body-m_4c84z_qfgyb_474&quot; id=&quot;link-self153-1733828822226-6857&quot;&gt;autozilla-ssm-logs&lt;/a&gt;&lt;/div&gt;&lt;/td&gt;&lt;/tr&gt;&lt;/tbody&gt;&lt;/table&gt;" style="sketch=0;outlineConnect=0;fontColor=#232F3E;gradientColor=none;strokeColor=#ffffff;fillColor=#232F3E;dashed=0;verticalLabelPosition=middle;verticalAlign=bottom;align=center;html=1;whiteSpace=wrap;fontSize=10;fontStyle=1;spacing=3;shape=mxgraph.aws4.productIcon;prIcon=mxgraph.aws4.s3;" vertex="1" parent="1">
          <mxGeometry x="242.5" y="1410" width="45" height="70" as="geometry" />
        </mxCell>
        <mxCell id="osnPLwHDW5WN9JGUpa0Q-155" value="&lt;a href=&quot;https://ap-southeast-1.console.aws.amazon.com/s3/buckets/aws-cloudtrail-logs-734695344452-cb636e2c?region=ap-southeast-1&quot; data-analytics-funnel-value=&quot;link158-1733828822228-302&quot; data-awsui-analytics=&quot;{&amp;quot;action&amp;quot;:&amp;quot;click&amp;quot;,&amp;quot;detail&amp;quot;:{&amp;quot;label&amp;quot;:{&amp;quot;root&amp;quot;:&amp;quot;self&amp;quot;},&amp;quot;external&amp;quot;:&amp;quot;false&amp;quot;,&amp;quot;href&amp;quot;:&amp;quot;https://ap-southeast-1.console.aws.amazon.com/s3/buckets/aws-cloudtrail-logs-734695344452-cb636e2c?region=ap-southeast-1&amp;quot;},&amp;quot;component&amp;quot;:{&amp;quot;name&amp;quot;:&amp;quot;awsui.Link&amp;quot;,&amp;quot;label&amp;quot;:{&amp;quot;root&amp;quot;:&amp;quot;self&amp;quot;},&amp;quot;properties&amp;quot;:{&amp;quot;variant&amp;quot;:&amp;quot;secondary&amp;quot;}}}&quot; class=&quot;awsui_link_4c84z_qfgyb_141 bucket-name awsui_variant-primary_4c84z_qfgyb_245 awsui_font-size-body-m_4c84z_qfgyb_474&quot; id=&quot;link-self159-1733828822228-7953&quot;&gt;aws-cloudtrail-logs-734695344452-cb636e2c&lt;/a&gt;" style="sketch=0;outlineConnect=0;fontColor=#232F3E;gradientColor=none;strokeColor=#ffffff;fillColor=#232F3E;dashed=0;verticalLabelPosition=middle;verticalAlign=bottom;align=center;html=1;whiteSpace=wrap;fontSize=10;fontStyle=1;spacing=3;shape=mxgraph.aws4.productIcon;prIcon=mxgraph.aws4.s3;" vertex="1" parent="1">
          <mxGeometry x="300" y="1410" width="45" height="70" as="geometry" />
        </mxCell>
        <mxCell id="osnPLwHDW5WN9JGUpa0Q-156" value="&lt;a href=&quot;https://ap-south-1.console.aws.amazon.com/s3/buckets/az-alblog?region=ap-south-1&quot; data-analytics-funnel-value=&quot;link164-1733828823234-9348&quot; data-awsui-analytics=&quot;{&amp;quot;action&amp;quot;:&amp;quot;click&amp;quot;,&amp;quot;detail&amp;quot;:{&amp;quot;label&amp;quot;:{&amp;quot;root&amp;quot;:&amp;quot;self&amp;quot;},&amp;quot;external&amp;quot;:&amp;quot;false&amp;quot;,&amp;quot;href&amp;quot;:&amp;quot;https://ap-south-1.console.aws.amazon.com/s3/buckets/az-alblog?region=ap-south-1&amp;quot;},&amp;quot;component&amp;quot;:{&amp;quot;name&amp;quot;:&amp;quot;awsui.Link&amp;quot;,&amp;quot;label&amp;quot;:{&amp;quot;root&amp;quot;:&amp;quot;self&amp;quot;},&amp;quot;properties&amp;quot;:{&amp;quot;variant&amp;quot;:&amp;quot;secondary&amp;quot;}}}&quot; class=&quot;awsui_link_4c84z_qfgyb_141 bucket-name awsui_variant-primary_4c84z_qfgyb_245 awsui_font-size-body-m_4c84z_qfgyb_474&quot; id=&quot;link-self165-1733828823234-7815&quot;&gt;az-alblog&lt;/a&gt;" style="sketch=0;outlineConnect=0;fontColor=#232F3E;gradientColor=none;strokeColor=#ffffff;fillColor=#232F3E;dashed=0;verticalLabelPosition=middle;verticalAlign=bottom;align=center;html=1;whiteSpace=wrap;fontSize=10;fontStyle=1;spacing=3;shape=mxgraph.aws4.productIcon;prIcon=mxgraph.aws4.s3;" vertex="1" parent="1">
          <mxGeometry x="360" y="1410" width="45" height="70" as="geometry" />
        </mxCell>
        <mxCell id="osnPLwHDW5WN9JGUpa0Q-157" value="&lt;a href=&quot;https://ap-south-1.console.aws.amazon.com/s3/buckets/az-autodata?region=ap-south-1&quot; data-analytics-funnel-value=&quot;link170-1733828823237-4995&quot; data-awsui-analytics=&quot;{&amp;quot;action&amp;quot;:&amp;quot;click&amp;quot;,&amp;quot;detail&amp;quot;:{&amp;quot;label&amp;quot;:{&amp;quot;root&amp;quot;:&amp;quot;self&amp;quot;},&amp;quot;external&amp;quot;:&amp;quot;false&amp;quot;,&amp;quot;href&amp;quot;:&amp;quot;https://ap-south-1.console.aws.amazon.com/s3/buckets/az-autodata?region=ap-south-1&amp;quot;},&amp;quot;component&amp;quot;:{&amp;quot;name&amp;quot;:&amp;quot;awsui.Link&amp;quot;,&amp;quot;label&amp;quot;:{&amp;quot;root&amp;quot;:&amp;quot;self&amp;quot;},&amp;quot;properties&amp;quot;:{&amp;quot;variant&amp;quot;:&amp;quot;secondary&amp;quot;}}}&quot; class=&quot;awsui_link_4c84z_qfgyb_141 bucket-name awsui_variant-primary_4c84z_qfgyb_245 awsui_font-size-body-m_4c84z_qfgyb_474&quot; id=&quot;link-self171-1733828823237-7864&quot;&gt;az-autodata&lt;/a&gt;" style="sketch=0;outlineConnect=0;fontColor=#232F3E;gradientColor=none;strokeColor=#ffffff;fillColor=#232F3E;dashed=0;verticalLabelPosition=middle;verticalAlign=bottom;align=center;html=1;whiteSpace=wrap;fontSize=10;fontStyle=1;spacing=3;shape=mxgraph.aws4.productIcon;prIcon=mxgraph.aws4.s3;" vertex="1" parent="1">
          <mxGeometry x="425" y="1410" width="45" height="70" as="geometry" />
        </mxCell>
        <mxCell id="osnPLwHDW5WN9JGUpa0Q-158" value="&lt;a href=&quot;https://ap-south-1.console.aws.amazon.com/s3/buckets/az-dev-images-azvpc?region=ap-south-1&quot; data-analytics-funnel-value=&quot;link176-1733828823286-5084&quot; data-awsui-analytics=&quot;{&amp;quot;action&amp;quot;:&amp;quot;click&amp;quot;,&amp;quot;detail&amp;quot;:{&amp;quot;label&amp;quot;:{&amp;quot;root&amp;quot;:&amp;quot;self&amp;quot;},&amp;quot;external&amp;quot;:&amp;quot;false&amp;quot;,&amp;quot;href&amp;quot;:&amp;quot;https://ap-south-1.console.aws.amazon.com/s3/buckets/az-dev-images-azvpc?region=ap-south-1&amp;quot;},&amp;quot;component&amp;quot;:{&amp;quot;name&amp;quot;:&amp;quot;awsui.Link&amp;quot;,&amp;quot;label&amp;quot;:{&amp;quot;root&amp;quot;:&amp;quot;self&amp;quot;},&amp;quot;properties&amp;quot;:{&amp;quot;variant&amp;quot;:&amp;quot;secondary&amp;quot;}}}&quot; class=&quot;awsui_link_4c84z_qfgyb_141 bucket-name awsui_variant-primary_4c84z_qfgyb_245 awsui_font-size-body-m_4c84z_qfgyb_474&quot; id=&quot;link-self177-1733828823286-3665&quot;&gt;az-dev-images-azvpc&lt;/a&gt;" style="sketch=0;outlineConnect=0;fontColor=#232F3E;gradientColor=none;strokeColor=#ffffff;fillColor=#232F3E;dashed=0;verticalLabelPosition=middle;verticalAlign=bottom;align=center;html=1;whiteSpace=wrap;fontSize=10;fontStyle=1;spacing=3;shape=mxgraph.aws4.productIcon;prIcon=mxgraph.aws4.s3;" vertex="1" parent="1">
          <mxGeometry x="480" y="1410" width="45" height="70" as="geometry" />
        </mxCell>
        <mxCell id="osnPLwHDW5WN9JGUpa0Q-159" value="&lt;span data-awsui-analytics-label=&quot;.awsui_native-input_13tpe_9w8pd_6&quot; class=&quot;awsui_wrapper_1wepg_1vmnx_162 awsui_radio_1mabk_i06od_177&quot;&gt;&lt;span data-awsui-analytics=&quot;{&amp;quot;action&amp;quot;:&amp;quot;select&amp;quot;,&amp;quot;detail&amp;quot;:{&amp;quot;label&amp;quot;:&amp;quot;.awsui_native-input_13tpe_9w8pd_6&amp;quot;}}&quot; class=&quot;awsui_label-wrapper_1wepg_1vmnx_168&quot;&gt;&lt;span class=&quot;awsui_control_1wepg_1vmnx_202 awsui_radio-control_1mabk_i06od_189&quot;&gt;&lt;svg aria-hidden=&quot;true&quot; viewBox=&quot;0 0 100 100&quot;&gt;&lt;/svg&gt;&lt;/span&gt;&lt;/span&gt;&lt;/span&gt;&lt;table aria-labelledby=&quot;heading28-1733828817274-3932&quot; data-analytics-task-interaction-id=&quot;23-1733828817273-5364&quot; data-analytics-performance-mark=&quot;22-1733828817273-8168&quot; aria-rowcount=&quot;19&quot; role=&quot;table&quot; class=&quot;awsui_table_wih1l_1v07r_198 awsui_table-layout-fixed_wih1l_1v07r_204 awsui-context-compact-table&quot;&gt;&lt;tbody&gt;&lt;tr aria-rowindex=&quot;12&quot; data-selection-item=&quot;item&quot; class=&quot;awsui_row_wih1l_1v07r_356&quot;&gt;&lt;td class=&quot;awsui_body-cell_c6tup_et2x0_148 awsui_is-visual-refresh_c6tup_et2x0_267 awsui_selection-control_wih1l_1v07r_279 awsui_has-selection_c6tup_et2x0_445&quot;&gt;&lt;div class=&quot;awsui_body-cell-content_c6tup_et2x0_156&quot;&gt;&lt;label data-awsui-analytics=&quot;{&amp;quot;detail&amp;quot;:{&amp;quot;position&amp;quot;:&amp;quot;11&amp;quot;,&amp;quot;item&amp;quot;:&amp;quot;az-uat-images-azvpc&amp;quot;}}&quot; title=&quot;Table Selection Select az-uat-images-azvpc&quot; aria-label=&quot;Table Selection Select az-uat-images-azvpc&quot; class=&quot;awsui_label_1s55x_1iiee_145 awsui_root_1s55x_1iiee_141&quot; for=&quot;118-1733828820890-4496&quot;&gt;&lt;span data-awsui-analytics-label=&quot;.awsui_native-input_13tpe_9w8pd_6&quot; class=&quot;awsui_wrapper_1wepg_1vmnx_162 awsui_radio_1mabk_i06od_177&quot;&gt;&lt;span data-awsui-analytics=&quot;{&amp;quot;action&amp;quot;:&amp;quot;select&amp;quot;,&amp;quot;detail&amp;quot;:{&amp;quot;label&amp;quot;:&amp;quot;.awsui_native-input_13tpe_9w8pd_6&amp;quot;}}&quot; class=&quot;awsui_label-wrapper_1wepg_1vmnx_168&quot;&gt;&lt;span class=&quot;awsui_control_1wepg_1vmnx_202 awsui_radio-control_1mabk_i06od_189&quot;&gt;&lt;/span&gt;&lt;span class=&quot;awsui_content_1wepg_1vmnx_141 awsui_empty-content_1wepg_1vmnx_179&quot;&gt;&lt;/span&gt;&lt;/span&gt;&lt;/span&gt;&lt;/label&gt;&lt;span aria-hidden=&quot;true&quot; class=&quot;awsui_stud_1s55x_1iiee_159&quot;&gt;&lt;/span&gt;&lt;/div&gt;&lt;br&gt;&lt;/td&gt;&lt;td data-awsui-analytics=&quot;{&amp;quot;component&amp;quot;:{&amp;quot;innerContext&amp;quot;:{&amp;quot;position&amp;quot;:&amp;quot;11,1&amp;quot;,&amp;quot;columnId&amp;quot;:&amp;quot;Name&amp;quot;,&amp;quot;columnLabel&amp;quot;:{&amp;quot;selector&amp;quot;:&amp;quot;table thead tr th:nth-child(2)&amp;quot;,&amp;quot;root&amp;quot;:&amp;quot;component&amp;quot;},&amp;quot;item&amp;quot;:&amp;quot;az-uat-images-azvpc&amp;quot;}}}&quot; class=&quot;awsui_body-cell_c6tup_et2x0_148 awsui_body-cell-wrap_c6tup_et2x0_253 awsui_is-visual-refresh_c6tup_et2x0_267 awsui_has-selection_c6tup_et2x0_445 awsui_resizable-columns_c6tup_et2x0_1092&quot;&gt;&lt;div class=&quot;awsui_body-cell-content_c6tup_et2x0_156&quot;&gt;&lt;a href=&quot;https://ap-south-1.console.aws.amazon.com/s3/buckets/az-uat-images-azvpc?region=ap-south-1&quot; data-analytics-funnel-value=&quot;link194-1733828823292-7828&quot; data-awsui-analytics=&quot;{&amp;quot;action&amp;quot;:&amp;quot;click&amp;quot;,&amp;quot;detail&amp;quot;:{&amp;quot;label&amp;quot;:{&amp;quot;root&amp;quot;:&amp;quot;self&amp;quot;},&amp;quot;external&amp;quot;:&amp;quot;false&amp;quot;,&amp;quot;href&amp;quot;:&amp;quot;https://ap-south-1.console.aws.amazon.com/s3/buckets/az-uat-images-azvpc?region=ap-south-1&amp;quot;},&amp;quot;component&amp;quot;:{&amp;quot;name&amp;quot;:&amp;quot;awsui.Link&amp;quot;,&amp;quot;label&amp;quot;:{&amp;quot;root&amp;quot;:&amp;quot;self&amp;quot;},&amp;quot;properties&amp;quot;:{&amp;quot;variant&amp;quot;:&amp;quot;secondary&amp;quot;}}}&quot; class=&quot;awsui_link_4c84z_qfgyb_141 bucket-name awsui_variant-primary_4c84z_qfgyb_245 awsui_font-size-body-m_4c84z_qfgyb_474&quot; id=&quot;link-self195-1733828823292-2878&quot;&gt;az-uat-images-azvpc&lt;/a&gt;&lt;/div&gt;&lt;/td&gt;&lt;/tr&gt;&lt;/tbody&gt;&lt;/table&gt;" style="sketch=0;outlineConnect=0;fontColor=#232F3E;gradientColor=none;strokeColor=#ffffff;fillColor=#232F3E;dashed=0;verticalLabelPosition=middle;verticalAlign=bottom;align=center;html=1;whiteSpace=wrap;fontSize=10;fontStyle=1;spacing=3;shape=mxgraph.aws4.productIcon;prIcon=mxgraph.aws4.s3;" vertex="1" parent="1">
          <mxGeometry x="135" y="1490" width="45" height="70" as="geometry" />
        </mxCell>
        <mxCell id="osnPLwHDW5WN9JGUpa0Q-160" value="&lt;span data-awsui-analytics-label=&quot;.awsui_native-input_13tpe_9w8pd_6&quot; class=&quot;awsui_wrapper_1wepg_1vmnx_162 awsui_radio_1mabk_i06od_177&quot;&gt;&lt;span data-awsui-analytics=&quot;{&amp;quot;action&amp;quot;:&amp;quot;select&amp;quot;,&amp;quot;detail&amp;quot;:{&amp;quot;label&amp;quot;:&amp;quot;.awsui_native-input_13tpe_9w8pd_6&amp;quot;}}&quot; class=&quot;awsui_label-wrapper_1wepg_1vmnx_168&quot;&gt;&lt;span class=&quot;awsui_control_1wepg_1vmnx_202 awsui_radio-control_1mabk_i06od_189&quot;&gt;&lt;svg aria-hidden=&quot;true&quot; viewBox=&quot;0 0 100 100&quot;&gt;&lt;/svg&gt;&lt;/span&gt;&lt;/span&gt;&lt;/span&gt;&lt;table aria-labelledby=&quot;heading28-1733828817274-3932&quot; data-analytics-task-interaction-id=&quot;23-1733828817273-5364&quot; data-analytics-performance-mark=&quot;22-1733828817273-8168&quot; aria-rowcount=&quot;19&quot; role=&quot;table&quot; class=&quot;awsui_table_wih1l_1v07r_198 awsui_table-layout-fixed_wih1l_1v07r_204 awsui-context-compact-table&quot;&gt;&lt;tbody&gt;&lt;tr aria-rowindex=&quot;13&quot; data-selection-item=&quot;item&quot; class=&quot;awsui_row_wih1l_1v07r_356&quot;&gt;&lt;td class=&quot;awsui_body-cell_c6tup_et2x0_148 awsui_is-visual-refresh_c6tup_et2x0_267 awsui_selection-control_wih1l_1v07r_279 awsui_has-selection_c6tup_et2x0_445&quot;&gt;&lt;div class=&quot;awsui_body-cell-content_c6tup_et2x0_156&quot;&gt;&lt;label data-awsui-analytics=&quot;{&amp;quot;detail&amp;quot;:{&amp;quot;position&amp;quot;:&amp;quot;12&amp;quot;,&amp;quot;item&amp;quot;:&amp;quot;cf-templates-7jzix1fuasj0-ap-south-1&amp;quot;}}&quot; title=&quot;Table Selection Select cf-templates-7jzix1fuasj0-ap-south-1&quot; aria-label=&quot;Table Selection Select cf-templates-7jzix1fuasj0-ap-south-1&quot; class=&quot;awsui_label_1s55x_1iiee_145 awsui_root_1s55x_1iiee_141&quot; for=&quot;120-1733828820892-6695&quot;&gt;&lt;span data-awsui-analytics-label=&quot;.awsui_native-input_13tpe_9w8pd_6&quot; class=&quot;awsui_wrapper_1wepg_1vmnx_162 awsui_radio_1mabk_i06od_177&quot;&gt;&lt;span data-awsui-analytics=&quot;{&amp;quot;action&amp;quot;:&amp;quot;select&amp;quot;,&amp;quot;detail&amp;quot;:{&amp;quot;label&amp;quot;:&amp;quot;.awsui_native-input_13tpe_9w8pd_6&amp;quot;}}&quot; class=&quot;awsui_label-wrapper_1wepg_1vmnx_168&quot;&gt;&lt;span class=&quot;awsui_control_1wepg_1vmnx_202 awsui_radio-control_1mabk_i06od_189&quot;&gt;&lt;/span&gt;&lt;span class=&quot;awsui_content_1wepg_1vmnx_141 awsui_empty-content_1wepg_1vmnx_179&quot;&gt;&lt;/span&gt;&lt;/span&gt;&lt;/span&gt;&lt;/label&gt;&lt;span aria-hidden=&quot;true&quot; class=&quot;awsui_stud_1s55x_1iiee_159&quot;&gt;&lt;/span&gt;&lt;/div&gt;&lt;br&gt;&lt;/td&gt;&lt;td data-awsui-analytics=&quot;{&amp;quot;component&amp;quot;:{&amp;quot;innerContext&amp;quot;:{&amp;quot;position&amp;quot;:&amp;quot;12,1&amp;quot;,&amp;quot;columnId&amp;quot;:&amp;quot;Name&amp;quot;,&amp;quot;columnLabel&amp;quot;:{&amp;quot;selector&amp;quot;:&amp;quot;table thead tr th:nth-child(2)&amp;quot;,&amp;quot;root&amp;quot;:&amp;quot;component&amp;quot;},&amp;quot;item&amp;quot;:&amp;quot;cf-templates-7jzix1fuasj0-ap-south-1&amp;quot;}}}&quot; class=&quot;awsui_body-cell_c6tup_et2x0_148 awsui_body-cell-wrap_c6tup_et2x0_253 awsui_is-visual-refresh_c6tup_et2x0_267 awsui_has-selection_c6tup_et2x0_445 awsui_resizable-columns_c6tup_et2x0_1092&quot;&gt;&lt;div class=&quot;awsui_body-cell-content_c6tup_et2x0_156&quot;&gt;&lt;a href=&quot;https://ap-south-1.console.aws.amazon.com/s3/buckets/cf-templates-7jzix1fuasj0-ap-south-1?region=ap-south-1&quot; data-analytics-funnel-value=&quot;link200-1733828824245-6053&quot; data-awsui-analytics=&quot;{&amp;quot;action&amp;quot;:&amp;quot;click&amp;quot;,&amp;quot;detail&amp;quot;:{&amp;quot;label&amp;quot;:{&amp;quot;root&amp;quot;:&amp;quot;self&amp;quot;},&amp;quot;external&amp;quot;:&amp;quot;false&amp;quot;,&amp;quot;href&amp;quot;:&amp;quot;https://ap-south-1.console.aws.amazon.com/s3/buckets/cf-templates-7jzix1fuasj0-ap-south-1?region=ap-south-1&amp;quot;},&amp;quot;component&amp;quot;:{&amp;quot;name&amp;quot;:&amp;quot;awsui.Link&amp;quot;,&amp;quot;label&amp;quot;:{&amp;quot;root&amp;quot;:&amp;quot;self&amp;quot;},&amp;quot;properties&amp;quot;:{&amp;quot;variant&amp;quot;:&amp;quot;secondary&amp;quot;}}}&quot; class=&quot;awsui_link_4c84z_qfgyb_141 bucket-name awsui_variant-primary_4c84z_qfgyb_245 awsui_font-size-body-m_4c84z_qfgyb_474&quot; id=&quot;link-self201-1733828824245-5975&quot;&gt;cf-templates-7jzix1fuasj0-ap-south-1&lt;/a&gt;&lt;/div&gt;&lt;/td&gt;&lt;/tr&gt;&lt;/tbody&gt;&lt;/table&gt;" style="sketch=0;outlineConnect=0;fontColor=#232F3E;gradientColor=none;strokeColor=#ffffff;fillColor=#232F3E;dashed=0;verticalLabelPosition=middle;verticalAlign=bottom;align=center;html=1;whiteSpace=wrap;fontSize=10;fontStyle=1;spacing=3;shape=mxgraph.aws4.productIcon;prIcon=mxgraph.aws4.s3;" vertex="1" parent="1">
          <mxGeometry x="195" y="1490" width="45" height="70" as="geometry" />
        </mxCell>
        <mxCell id="osnPLwHDW5WN9JGUpa0Q-161" value="&lt;a href=&quot;https://ap-south-1.console.aws.amazon.com/s3/buckets/codepipeline-ap-south-1-375006424734?region=ap-south-1&quot; data-analytics-funnel-value=&quot;link206-1733828824246-1682&quot; data-awsui-analytics=&quot;{&amp;quot;action&amp;quot;:&amp;quot;click&amp;quot;,&amp;quot;detail&amp;quot;:{&amp;quot;label&amp;quot;:{&amp;quot;root&amp;quot;:&amp;quot;self&amp;quot;},&amp;quot;external&amp;quot;:&amp;quot;false&amp;quot;,&amp;quot;href&amp;quot;:&amp;quot;https://ap-south-1.console.aws.amazon.com/s3/buckets/codepipeline-ap-south-1-375006424734?region=ap-south-1&amp;quot;},&amp;quot;component&amp;quot;:{&amp;quot;name&amp;quot;:&amp;quot;awsui.Link&amp;quot;,&amp;quot;label&amp;quot;:{&amp;quot;root&amp;quot;:&amp;quot;self&amp;quot;},&amp;quot;properties&amp;quot;:{&amp;quot;variant&amp;quot;:&amp;quot;secondary&amp;quot;}}}&quot; class=&quot;awsui_link_4c84z_qfgyb_141 bucket-name awsui_variant-primary_4c84z_qfgyb_245 awsui_font-size-body-m_4c84z_qfgyb_474&quot; id=&quot;link-self207-1733828824246-7072&quot;&gt;codepipeline-ap-south-1-375006424734&lt;/a&gt;" style="sketch=0;outlineConnect=0;fontColor=#232F3E;gradientColor=none;strokeColor=#ffffff;fillColor=#232F3E;dashed=0;verticalLabelPosition=middle;verticalAlign=bottom;align=center;html=1;whiteSpace=wrap;fontSize=10;fontStyle=1;spacing=3;shape=mxgraph.aws4.productIcon;prIcon=mxgraph.aws4.s3;" vertex="1" parent="1">
          <mxGeometry x="247.5" y="1490" width="45" height="70" as="geometry" />
        </mxCell>
        <mxCell id="osnPLwHDW5WN9JGUpa0Q-162" value="&lt;a href=&quot;https://ap-south-1.console.aws.amazon.com/s3/buckets/prodrequestimglogs?region=ap-south-1&quot; data-analytics-funnel-value=&quot;link212-1733828824248-6047&quot; data-awsui-analytics=&quot;{&amp;quot;action&amp;quot;:&amp;quot;click&amp;quot;,&amp;quot;detail&amp;quot;:{&amp;quot;label&amp;quot;:{&amp;quot;root&amp;quot;:&amp;quot;self&amp;quot;},&amp;quot;external&amp;quot;:&amp;quot;false&amp;quot;,&amp;quot;href&amp;quot;:&amp;quot;https://ap-south-1.console.aws.amazon.com/s3/buckets/prodrequestimglogs?region=ap-south-1&amp;quot;},&amp;quot;component&amp;quot;:{&amp;quot;name&amp;quot;:&amp;quot;awsui.Link&amp;quot;,&amp;quot;label&amp;quot;:{&amp;quot;root&amp;quot;:&amp;quot;self&amp;quot;},&amp;quot;properties&amp;quot;:{&amp;quot;variant&amp;quot;:&amp;quot;secondary&amp;quot;}}}&quot; class=&quot;awsui_link_4c84z_qfgyb_141 bucket-name awsui_variant-primary_4c84z_qfgyb_245 awsui_font-size-body-m_4c84z_qfgyb_474&quot; id=&quot;link-self213-1733828824248-4498&quot;&gt;prodrequestimglogs&lt;/a&gt;" style="sketch=0;outlineConnect=0;fontColor=#232F3E;gradientColor=none;strokeColor=#ffffff;fillColor=#232F3E;dashed=0;verticalLabelPosition=middle;verticalAlign=bottom;align=center;html=1;whiteSpace=wrap;fontSize=10;fontStyle=1;spacing=3;shape=mxgraph.aws4.productIcon;prIcon=mxgraph.aws4.s3;" vertex="1" parent="1">
          <mxGeometry x="300" y="1490" width="45" height="70" as="geometry" />
        </mxCell>
        <mxCell id="osnPLwHDW5WN9JGUpa0Q-163" value="&lt;a href=&quot;https://ap-south-1.console.aws.amazon.com/s3/buckets/prodtestimage?region=ap-south-1&quot; data-analytics-funnel-value=&quot;link218-1733828824249-4127&quot; data-awsui-analytics=&quot;{&amp;quot;action&amp;quot;:&amp;quot;click&amp;quot;,&amp;quot;detail&amp;quot;:{&amp;quot;label&amp;quot;:{&amp;quot;root&amp;quot;:&amp;quot;self&amp;quot;},&amp;quot;external&amp;quot;:&amp;quot;false&amp;quot;,&amp;quot;href&amp;quot;:&amp;quot;https://ap-south-1.console.aws.amazon.com/s3/buckets/prodtestimage?region=ap-south-1&amp;quot;},&amp;quot;component&amp;quot;:{&amp;quot;name&amp;quot;:&amp;quot;awsui.Link&amp;quot;,&amp;quot;label&amp;quot;:{&amp;quot;root&amp;quot;:&amp;quot;self&amp;quot;},&amp;quot;properties&amp;quot;:{&amp;quot;variant&amp;quot;:&amp;quot;secondary&amp;quot;}}}&quot; class=&quot;awsui_link_4c84z_qfgyb_141 bucket-name awsui_variant-primary_4c84z_qfgyb_245 awsui_font-size-body-m_4c84z_qfgyb_474&quot; id=&quot;link-self219-1733828824250-8559&quot;&gt;prodtestimage&lt;/a&gt;" style="sketch=0;outlineConnect=0;fontColor=#232F3E;gradientColor=none;strokeColor=#ffffff;fillColor=#232F3E;dashed=0;verticalLabelPosition=middle;verticalAlign=bottom;align=center;html=1;whiteSpace=wrap;fontSize=10;fontStyle=1;spacing=3;shape=mxgraph.aws4.productIcon;prIcon=mxgraph.aws4.s3;" vertex="1" parent="1">
          <mxGeometry x="360" y="1490" width="45" height="70" as="geometry" />
        </mxCell>
        <mxCell id="osnPLwHDW5WN9JGUpa0Q-164" value="&lt;a href=&quot;https://ap-south-1.console.aws.amazon.com/s3/buckets/team-kt?region=ap-south-1&quot; data-analytics-funnel-value=&quot;link224-1733828824251-6672&quot; data-awsui-analytics=&quot;{&amp;quot;action&amp;quot;:&amp;quot;click&amp;quot;,&amp;quot;detail&amp;quot;:{&amp;quot;label&amp;quot;:{&amp;quot;root&amp;quot;:&amp;quot;self&amp;quot;},&amp;quot;external&amp;quot;:&amp;quot;false&amp;quot;,&amp;quot;href&amp;quot;:&amp;quot;https://ap-south-1.console.aws.amazon.com/s3/buckets/team-kt?region=ap-south-1&amp;quot;},&amp;quot;component&amp;quot;:{&amp;quot;name&amp;quot;:&amp;quot;awsui.Link&amp;quot;,&amp;quot;label&amp;quot;:{&amp;quot;root&amp;quot;:&amp;quot;self&amp;quot;},&amp;quot;properties&amp;quot;:{&amp;quot;variant&amp;quot;:&amp;quot;secondary&amp;quot;}}}&quot; class=&quot;awsui_link_4c84z_qfgyb_141 bucket-name awsui_variant-primary_4c84z_qfgyb_245 awsui_font-size-body-m_4c84z_qfgyb_474&quot; id=&quot;link-self225-1733828824251-8038&quot;&gt;team-kt&lt;/a&gt;" style="sketch=0;outlineConnect=0;fontColor=#232F3E;gradientColor=none;strokeColor=#ffffff;fillColor=#232F3E;dashed=0;verticalLabelPosition=middle;verticalAlign=bottom;align=center;html=1;whiteSpace=wrap;fontSize=10;fontStyle=1;spacing=3;shape=mxgraph.aws4.productIcon;prIcon=mxgraph.aws4.s3;" vertex="1" parent="1">
          <mxGeometry x="425" y="1490" width="45" height="70" as="geometry" />
        </mxCell>
        <mxCell id="osnPLwHDW5WN9JGUpa0Q-165" value="&lt;a href=&quot;https://ap-south-1.console.aws.amazon.com/s3/buckets/textract-console-ap-south-1-7602d3a3-d77f-4224-a62e-82041673600?region=ap-south-1&quot; data-analytics-funnel-value=&quot;link230-1733828824953-765&quot; data-awsui-analytics=&quot;{&amp;quot;action&amp;quot;:&amp;quot;click&amp;quot;,&amp;quot;detail&amp;quot;:{&amp;quot;label&amp;quot;:{&amp;quot;root&amp;quot;:&amp;quot;self&amp;quot;},&amp;quot;external&amp;quot;:&amp;quot;false&amp;quot;,&amp;quot;href&amp;quot;:&amp;quot;https://ap-south-1.console.aws.amazon.com/s3/buckets/textract-console-ap-south-1-7602d3a3-d77f-4224-a62e-82041673600?region=ap-south-1&amp;quot;},&amp;quot;component&amp;quot;:{&amp;quot;name&amp;quot;:&amp;quot;awsui.Link&amp;quot;,&amp;quot;label&amp;quot;:{&amp;quot;root&amp;quot;:&amp;quot;self&amp;quot;},&amp;quot;properties&amp;quot;:{&amp;quot;variant&amp;quot;:&amp;quot;secondary&amp;quot;}}}&quot; class=&quot;awsui_link_4c84z_qfgyb_141 bucket-name awsui_variant-primary_4c84z_qfgyb_245 awsui_font-size-body-m_4c84z_qfgyb_474&quot; id=&quot;link-self231-1733828824953-9210&quot;&gt;textract-console-ap-south-1-7602d3a3-d77f-4224-a62e-82041673600&lt;/a&gt;" style="sketch=0;outlineConnect=0;fontColor=#232F3E;gradientColor=none;strokeColor=#ffffff;fillColor=#232F3E;dashed=0;verticalLabelPosition=middle;verticalAlign=bottom;align=center;html=1;whiteSpace=wrap;fontSize=10;fontStyle=1;spacing=3;shape=mxgraph.aws4.productIcon;prIcon=mxgraph.aws4.s3;" vertex="1" parent="1">
          <mxGeometry x="480" y="1490" width="45" height="70" as="geometry" />
        </mxCell>
        <mxCell id="osnPLwHDW5WN9JGUpa0Q-166" value="&lt;a href=&quot;https://ap-south-1.console.aws.amazon.com/s3/buckets/az-poslogs?region=ap-south-1&quot; data-analytics-funnel-value=&quot;link182-1733828823289-3185&quot; data-awsui-analytics=&quot;{&amp;quot;action&amp;quot;:&amp;quot;click&amp;quot;,&amp;quot;detail&amp;quot;:{&amp;quot;label&amp;quot;:{&amp;quot;root&amp;quot;:&amp;quot;self&amp;quot;},&amp;quot;external&amp;quot;:&amp;quot;false&amp;quot;,&amp;quot;href&amp;quot;:&amp;quot;https://ap-south-1.console.aws.amazon.com/s3/buckets/az-poslogs?region=ap-south-1&amp;quot;},&amp;quot;component&amp;quot;:{&amp;quot;name&amp;quot;:&amp;quot;awsui.Link&amp;quot;,&amp;quot;label&amp;quot;:{&amp;quot;root&amp;quot;:&amp;quot;self&amp;quot;},&amp;quot;properties&amp;quot;:{&amp;quot;variant&amp;quot;:&amp;quot;secondary&amp;quot;}}}&quot; class=&quot;awsui_link_4c84z_qfgyb_141 bucket-name awsui_variant-primary_4c84z_qfgyb_245 awsui_font-size-body-m_4c84z_qfgyb_474&quot; id=&quot;link-self183-1733828823289-2323&quot;&gt;az-poslogs&lt;/a&gt;" style="sketch=0;outlineConnect=0;fontColor=#232F3E;gradientColor=none;strokeColor=#ffffff;fillColor=#232F3E;dashed=0;verticalLabelPosition=middle;verticalAlign=bottom;align=center;html=1;whiteSpace=wrap;fontSize=10;fontStyle=1;spacing=3;shape=mxgraph.aws4.productIcon;prIcon=mxgraph.aws4.s3;" vertex="1" parent="1">
          <mxGeometry x="530" y="1410" width="45" height="70" as="geometry" />
        </mxCell>
        <mxCell id="osnPLwHDW5WN9JGUpa0Q-167" value="&lt;span data-awsui-analytics-label=&quot;.awsui_native-input_13tpe_9w8pd_6&quot; class=&quot;awsui_wrapper_1wepg_1vmnx_162 awsui_radio_1mabk_i06od_177&quot;&gt;&lt;span data-awsui-analytics=&quot;{&amp;quot;action&amp;quot;:&amp;quot;select&amp;quot;,&amp;quot;detail&amp;quot;:{&amp;quot;label&amp;quot;:&amp;quot;.awsui_native-input_13tpe_9w8pd_6&amp;quot;}}&quot; class=&quot;awsui_label-wrapper_1wepg_1vmnx_168&quot;&gt;&lt;span class=&quot;awsui_control_1wepg_1vmnx_202 awsui_radio-control_1mabk_i06od_189&quot;&gt;&lt;svg aria-hidden=&quot;true&quot; viewBox=&quot;0 0 100 100&quot;&gt;&lt;/svg&gt;&lt;/span&gt;&lt;/span&gt;&lt;/span&gt;&lt;table aria-labelledby=&quot;heading28-1733828817274-3932&quot; data-analytics-task-interaction-id=&quot;23-1733828817273-5364&quot; data-analytics-performance-mark=&quot;22-1733828817273-8168&quot; aria-rowcount=&quot;19&quot; role=&quot;table&quot; class=&quot;awsui_table_wih1l_1v07r_198 awsui_table-layout-fixed_wih1l_1v07r_204 awsui-context-compact-table&quot;&gt;&lt;tbody&gt;&lt;tr aria-rowindex=&quot;19&quot; data-selection-item=&quot;item&quot; class=&quot;awsui_row_wih1l_1v07r_356&quot;&gt;&lt;td class=&quot;awsui_body-cell_c6tup_et2x0_148 awsui_body-cell-last-row_c6tup_et2x0_790 awsui_is-visual-refresh_c6tup_et2x0_267 awsui_selection-control_wih1l_1v07r_279 awsui_has-selection_c6tup_et2x0_445&quot;&gt;&lt;div class=&quot;awsui_body-cell-content_c6tup_et2x0_156&quot;&gt;&lt;label data-awsui-analytics=&quot;{&amp;quot;detail&amp;quot;:{&amp;quot;position&amp;quot;:&amp;quot;18&amp;quot;,&amp;quot;item&amp;quot;:&amp;quot;uatalblogs3&amp;quot;}}&quot; title=&quot;Table Selection Select uatalblogs3&quot; aria-label=&quot;Table Selection Select uatalblogs3&quot; class=&quot;awsui_label_1s55x_1iiee_145 awsui_root_1s55x_1iiee_141&quot; for=&quot;132-1733828820897-4619&quot;&gt;&lt;span data-awsui-analytics-label=&quot;.awsui_native-input_13tpe_9w8pd_6&quot; class=&quot;awsui_wrapper_1wepg_1vmnx_162 awsui_radio_1mabk_i06od_177&quot;&gt;&lt;span data-awsui-analytics=&quot;{&amp;quot;action&amp;quot;:&amp;quot;select&amp;quot;,&amp;quot;detail&amp;quot;:{&amp;quot;label&amp;quot;:&amp;quot;.awsui_native-input_13tpe_9w8pd_6&amp;quot;}}&quot; class=&quot;awsui_label-wrapper_1wepg_1vmnx_168&quot;&gt;&lt;span class=&quot;awsui_control_1wepg_1vmnx_202 awsui_radio-control_1mabk_i06od_189&quot;&gt;&lt;/span&gt;&lt;span class=&quot;awsui_content_1wepg_1vmnx_141 awsui_empty-content_1wepg_1vmnx_179&quot;&gt;&lt;/span&gt;&lt;/span&gt;&lt;/span&gt;&lt;/label&gt;&lt;span aria-hidden=&quot;true&quot; class=&quot;awsui_stud_1s55x_1iiee_159&quot;&gt;&lt;/span&gt;&lt;/div&gt;&lt;br&gt;&lt;/td&gt;&lt;td data-awsui-analytics=&quot;{&amp;quot;component&amp;quot;:{&amp;quot;innerContext&amp;quot;:{&amp;quot;position&amp;quot;:&amp;quot;18,1&amp;quot;,&amp;quot;columnId&amp;quot;:&amp;quot;Name&amp;quot;,&amp;quot;columnLabel&amp;quot;:{&amp;quot;selector&amp;quot;:&amp;quot;table thead tr th:nth-child(2)&amp;quot;,&amp;quot;root&amp;quot;:&amp;quot;component&amp;quot;},&amp;quot;item&amp;quot;:&amp;quot;uatalblogs3&amp;quot;}}}&quot; class=&quot;awsui_body-cell_c6tup_et2x0_148 awsui_body-cell-wrap_c6tup_et2x0_253 awsui_body-cell-last-row_c6tup_et2x0_790 awsui_is-visual-refresh_c6tup_et2x0_267 awsui_has-selection_c6tup_et2x0_445 awsui_resizable-columns_c6tup_et2x0_1092&quot;&gt;&lt;div class=&quot;awsui_body-cell-content_c6tup_et2x0_156&quot;&gt;&lt;a href=&quot;https://ap-south-1.console.aws.amazon.com/s3/buckets/uatalblogs3?region=ap-south-1&quot; data-analytics-funnel-value=&quot;link236-1733828824954-7699&quot; data-awsui-analytics=&quot;{&amp;quot;action&amp;quot;:&amp;quot;click&amp;quot;,&amp;quot;detail&amp;quot;:{&amp;quot;label&amp;quot;:{&amp;quot;root&amp;quot;:&amp;quot;self&amp;quot;},&amp;quot;external&amp;quot;:&amp;quot;false&amp;quot;,&amp;quot;href&amp;quot;:&amp;quot;https://ap-south-1.console.aws.amazon.com/s3/buckets/uatalblogs3?region=ap-south-1&amp;quot;},&amp;quot;component&amp;quot;:{&amp;quot;name&amp;quot;:&amp;quot;awsui.Link&amp;quot;,&amp;quot;label&amp;quot;:{&amp;quot;root&amp;quot;:&amp;quot;self&amp;quot;},&amp;quot;properties&amp;quot;:{&amp;quot;variant&amp;quot;:&amp;quot;secondary&amp;quot;}}}&quot; class=&quot;awsui_link_4c84z_qfgyb_141 bucket-name awsui_variant-primary_4c84z_qfgyb_245 awsui_font-size-body-m_4c84z_qfgyb_474&quot; id=&quot;link-self237-1733828824954-4029&quot;&gt;uatalblogs3&lt;/a&gt;&lt;/div&gt;&lt;/td&gt;&lt;/tr&gt;&lt;/tbody&gt;&lt;/table&gt;" style="sketch=0;outlineConnect=0;fontColor=#232F3E;gradientColor=none;strokeColor=#ffffff;fillColor=#232F3E;dashed=0;verticalLabelPosition=middle;verticalAlign=bottom;align=center;html=1;whiteSpace=wrap;fontSize=10;fontStyle=1;spacing=3;shape=mxgraph.aws4.productIcon;prIcon=mxgraph.aws4.s3;" vertex="1" parent="1">
          <mxGeometry x="530" y="1490" width="45" height="70" as="geometry" />
        </mxCell>
        <mxCell id="osnPLwHDW5WN9JGUpa0Q-168" value="&lt;a href=&quot;https://ap-south-1.console.aws.amazon.com/s3/buckets/az-prd-images-azvpc?region=ap-south-1&quot; data-analytics-funnel-value=&quot;link188-1733828823291-6409&quot; data-awsui-analytics=&quot;{&amp;quot;action&amp;quot;:&amp;quot;click&amp;quot;,&amp;quot;detail&amp;quot;:{&amp;quot;label&amp;quot;:{&amp;quot;root&amp;quot;:&amp;quot;self&amp;quot;},&amp;quot;external&amp;quot;:&amp;quot;false&amp;quot;,&amp;quot;href&amp;quot;:&amp;quot;https://ap-south-1.console.aws.amazon.com/s3/buckets/az-prd-images-azvpc?region=ap-south-1&amp;quot;},&amp;quot;component&amp;quot;:{&amp;quot;name&amp;quot;:&amp;quot;awsui.Link&amp;quot;,&amp;quot;label&amp;quot;:{&amp;quot;root&amp;quot;:&amp;quot;self&amp;quot;},&amp;quot;properties&amp;quot;:{&amp;quot;variant&amp;quot;:&amp;quot;secondary&amp;quot;}}}&quot; class=&quot;awsui_link_4c84z_qfgyb_141 bucket-name awsui_variant-primary_4c84z_qfgyb_245 awsui_font-size-body-m_4c84z_qfgyb_474&quot; id=&quot;link-self189-1733828823291-5021&quot;&gt;az-prd-images-azvpc&lt;/a&gt;" style="sketch=0;outlineConnect=0;fontColor=#232F3E;gradientColor=none;strokeColor=#ffffff;fillColor=#232F3E;dashed=0;verticalLabelPosition=middle;verticalAlign=bottom;align=center;html=1;whiteSpace=wrap;fontSize=10;fontStyle=1;spacing=3;shape=mxgraph.aws4.productIcon;prIcon=mxgraph.aws4.s3;" vertex="1" parent="1">
          <mxGeometry x="580" y="1410" width="45" height="70" as="geometry" />
        </mxCell>
        <mxCell id="osnPLwHDW5WN9JGUpa0Q-169" value="Amazon S3" style="sketch=0;outlineConnect=0;fontColor=#232F3E;gradientColor=none;strokeColor=#ffffff;fillColor=#232F3E;dashed=0;verticalLabelPosition=middle;verticalAlign=bottom;align=center;html=1;whiteSpace=wrap;fontSize=10;fontStyle=1;spacing=3;shape=mxgraph.aws4.productIcon;prIcon=mxgraph.aws4.s3;" vertex="1" parent="1">
          <mxGeometry x="580" y="1490" width="45" height="70" as="geometry" />
        </mxCell>
        <mxCell id="osnPLwHDW5WN9JGUpa0Q-171" style="edgeStyle=orthogonalEdgeStyle;rounded=0;orthogonalLoop=1;jettySize=auto;html=1;" edge="1" parent="1" source="osnPLwHDW5WN9JGUpa0Q-170" target="osnPLwHDW5WN9JGUpa0Q-144">
          <mxGeometry relative="1" as="geometry" />
        </mxCell>
        <mxCell id="osnPLwHDW5WN9JGUpa0Q-170" value="AWS WAF" style="sketch=0;outlineConnect=0;fontColor=#232F3E;gradientColor=none;strokeColor=#ffffff;fillColor=#232F3E;dashed=0;verticalLabelPosition=middle;verticalAlign=bottom;align=center;html=1;whiteSpace=wrap;fontSize=10;fontStyle=1;spacing=3;shape=mxgraph.aws4.productIcon;prIcon=mxgraph.aws4.waf;" vertex="1" parent="1">
          <mxGeometry x="1060" y="610" width="40" height="70" as="geometry" />
        </mxCell>
        <mxCell id="osnPLwHDW5WN9JGUpa0Q-172" value="" style="rounded=0;whiteSpace=wrap;html=1;" vertex="1" parent="1">
          <mxGeometry x="100" y="1600" width="540" height="200" as="geometry" />
        </mxCell>
        <mxCell id="osnPLwHDW5WN9JGUpa0Q-173" value="AWS&#xa;CloudTrail" style="sketch=0;outlineConnect=0;fontColor=#232F3E;gradientColor=none;strokeColor=#ffffff;fillColor=#232F3E;dashed=0;verticalLabelPosition=middle;verticalAlign=bottom;align=center;html=1;whiteSpace=wrap;fontSize=10;fontStyle=1;spacing=3;shape=mxgraph.aws4.productIcon;prIcon=mxgraph.aws4.cloudtrail;" vertex="1" parent="1">
          <mxGeometry x="110.79" y="1610" width="39.21" height="70" as="geometry" />
        </mxCell>
        <mxCell id="osnPLwHDW5WN9JGUpa0Q-174" value="Amazon CloudWatch" style="sketch=0;outlineConnect=0;fontColor=#232F3E;gradientColor=none;strokeColor=#ffffff;fillColor=#232F3E;dashed=0;verticalLabelPosition=middle;verticalAlign=bottom;align=center;html=1;whiteSpace=wrap;fontSize=10;fontStyle=1;spacing=3;shape=mxgraph.aws4.productIcon;prIcon=mxgraph.aws4.cloudwatch;" vertex="1" parent="1">
          <mxGeometry x="180" y="1610" width="40" height="70" as="geometry" />
        </mxCell>
        <mxCell id="osnPLwHDW5WN9JGUpa0Q-175" value="AWS Config" style="sketch=0;outlineConnect=0;fontColor=#232F3E;gradientColor=none;strokeColor=#ffffff;fillColor=#232F3E;dashed=0;verticalLabelPosition=middle;verticalAlign=bottom;align=center;html=1;whiteSpace=wrap;fontSize=10;fontStyle=1;spacing=3;shape=mxgraph.aws4.productIcon;prIcon=mxgraph.aws4.config;" vertex="1" parent="1">
          <mxGeometry x="240" y="1610" width="40" height="70" as="geometry" />
        </mxCell>
        <mxCell id="osnPLwHDW5WN9JGUpa0Q-176" value="" style="sketch=0;points=[[0,0,0],[0.25,0,0],[0.5,0,0],[0.75,0,0],[1,0,0],[0,1,0],[0.25,1,0],[0.5,1,0],[0.75,1,0],[1,1,0],[0,0.25,0],[0,0.5,0],[0,0.75,0],[1,0.25,0],[1,0.5,0],[1,0.75,0]];outlineConnect=0;fontColor=#232F3E;fillColor=#DD344C;strokeColor=#ffffff;dashed=0;verticalLabelPosition=bottom;verticalAlign=top;align=center;html=1;fontSize=12;fontStyle=0;aspect=fixed;shape=mxgraph.aws4.resourceIcon;resIcon=mxgraph.aws4.security_hub;" vertex="1" parent="1">
          <mxGeometry x="292.5" y="1610" width="40" height="40" as="geometry" />
        </mxCell>
        <mxCell id="osnPLwHDW5WN9JGUpa0Q-177" value="Amazon GuardDuty" style="sketch=0;outlineConnect=0;fontColor=#232F3E;gradientColor=none;strokeColor=#ffffff;fillColor=#232F3E;dashed=0;verticalLabelPosition=middle;verticalAlign=bottom;align=center;html=1;whiteSpace=wrap;fontSize=10;fontStyle=1;spacing=3;shape=mxgraph.aws4.productIcon;prIcon=mxgraph.aws4.guardduty;" vertex="1" parent="1">
          <mxGeometry x="350" y="1610" width="40" height="70" as="geometry" />
        </mxCell>
        <mxCell id="osnPLwHDW5WN9JGUpa0Q-178" value="Security Hub" style="text;strokeColor=none;align=center;fillColor=none;html=1;verticalAlign=middle;whiteSpace=wrap;rounded=0;" vertex="1" parent="1">
          <mxGeometry x="285" y="1650" width="60" height="30" as="geometry" />
        </mxCell>
        <mxCell id="osnPLwHDW5WN9JGUpa0Q-179" value="" style="outlineConnect=0;dashed=0;verticalLabelPosition=bottom;verticalAlign=top;align=center;html=1;shape=mxgraph.aws3.ses;fillColor=#D9A741;gradientColor=none;" vertex="1" parent="1">
          <mxGeometry x="405" y="1610" width="40" height="40" as="geometry" />
        </mxCell>
        <mxCell id="osnPLwHDW5WN9JGUpa0Q-180" value="SES" style="text;strokeColor=none;align=center;fillColor=none;html=1;verticalAlign=middle;whiteSpace=wrap;rounded=0;" vertex="1" parent="1">
          <mxGeometry x="395" y="1650" width="60" height="30" as="geometry" />
        </mxCell>
        <mxCell id="osnPLwHDW5WN9JGUpa0Q-181" value="" style="rounded=0;whiteSpace=wrap;html=1;" vertex="1" parent="1">
          <mxGeometry x="85" y="1890" width="215" height="120" as="geometry" />
        </mxCell>
        <mxCell id="osnPLwHDW5WN9JGUpa0Q-182" value="&lt;a href=&quot;https://lightsail.aws.amazon.com/ls/webapp/ap-south-1/instances/carz/connect&quot; data-analytics-funnel-value=&quot;link341-1733830156544-7229&quot; class=&quot;awsui_link_4c84z_ycx88_141 awsui_variant-primary_4c84z_ycx88_245 awsui_font-size-heading-l_4c84z_ycx88_500&quot; data-awsui-analytics=&quot;{&amp;quot;action&amp;quot;:&amp;quot;click&amp;quot;,&amp;quot;detail&amp;quot;:{&amp;quot;label&amp;quot;:{&amp;quot;root&amp;quot;:&amp;quot;self&amp;quot;},&amp;quot;external&amp;quot;:&amp;quot;false&amp;quot;,&amp;quot;href&amp;quot;:&amp;quot;/ls/webapp/ap-south-1/instances/carz/connect&amp;quot;},&amp;quot;component&amp;quot;:{&amp;quot;name&amp;quot;:&amp;quot;awsui.Link&amp;quot;,&amp;quot;label&amp;quot;:{&amp;quot;root&amp;quot;:&amp;quot;self&amp;quot;},&amp;quot;properties&amp;quot;:{&amp;quot;variant&amp;quot;:&amp;quot;primary&amp;quot;}}}&quot; data-analytics=&quot;cloudscape-resource-link-instance&quot; data-analytics-type=&quot;eventDetail&quot; id=&quot;link-self342-1733830156544-2667&quot;&gt;carz&lt;/a&gt;" style="sketch=0;outlineConnect=0;fontColor=#232F3E;gradientColor=none;strokeColor=#ffffff;fillColor=#232F3E;dashed=0;verticalLabelPosition=middle;verticalAlign=bottom;align=center;html=1;whiteSpace=wrap;fontSize=10;fontStyle=1;spacing=3;shape=mxgraph.aws4.productIcon;prIcon=mxgraph.aws4.lightsail;" vertex="1" parent="1">
          <mxGeometry x="115.00000000000001" y="1920" width="60" height="80" as="geometry" />
        </mxCell>
        <mxCell id="osnPLwHDW5WN9JGUpa0Q-183" value="&lt;a href=&quot;https://lightsail.aws.amazon.com/ls/webapp/ap-south-1/instances/fairrepair_LS/connect&quot; data-analytics-funnel-value=&quot;link359-1733830156556-8697&quot; class=&quot;awsui_link_4c84z_ycx88_141 awsui_variant-primary_4c84z_ycx88_245 awsui_font-size-heading-l_4c84z_ycx88_500&quot; data-awsui-analytics=&quot;{&amp;quot;action&amp;quot;:&amp;quot;click&amp;quot;,&amp;quot;detail&amp;quot;:{&amp;quot;label&amp;quot;:{&amp;quot;root&amp;quot;:&amp;quot;self&amp;quot;},&amp;quot;external&amp;quot;:&amp;quot;false&amp;quot;,&amp;quot;href&amp;quot;:&amp;quot;/ls/webapp/ap-south-1/instances/fairrepair_LS/connect&amp;quot;},&amp;quot;component&amp;quot;:{&amp;quot;name&amp;quot;:&amp;quot;awsui.Link&amp;quot;,&amp;quot;label&amp;quot;:{&amp;quot;root&amp;quot;:&amp;quot;self&amp;quot;},&amp;quot;properties&amp;quot;:{&amp;quot;variant&amp;quot;:&amp;quot;primary&amp;quot;}}}&quot; data-analytics=&quot;cloudscape-resource-link-instance&quot; data-analytics-type=&quot;eventDetail&quot; id=&quot;link-self360-1733830156556-9717&quot;&gt;fairrepair_LS&lt;/a&gt;" style="sketch=0;outlineConnect=0;fontColor=#232F3E;gradientColor=none;strokeColor=#ffffff;fillColor=#232F3E;dashed=0;verticalLabelPosition=middle;verticalAlign=bottom;align=center;html=1;whiteSpace=wrap;fontSize=10;fontStyle=1;spacing=3;shape=mxgraph.aws4.productIcon;prIcon=mxgraph.aws4.lightsail;" vertex="1" parent="1">
          <mxGeometry x="200" y="1920" width="60" height="80" as="geometry" />
        </mxCell>
        <mxCell id="osnPLwHDW5WN9JGUpa0Q-184" value="Lightsail" style="text;strokeColor=none;align=center;fillColor=none;html=1;verticalAlign=middle;whiteSpace=wrap;rounded=0;" vertex="1" parent="1">
          <mxGeometry x="85" y="1890" width="60" height="30" as="geometry" />
        </mxCell>
        <mxCell id="osnPLwHDW5WN9JGUpa0Q-185" value="AWS Key Management Service" style="sketch=0;outlineConnect=0;fontColor=#232F3E;gradientColor=none;strokeColor=#ffffff;fillColor=#232F3E;dashed=0;verticalLabelPosition=middle;verticalAlign=bottom;align=center;html=1;whiteSpace=wrap;fontSize=10;fontStyle=1;spacing=3;shape=mxgraph.aws4.productIcon;prIcon=mxgraph.aws4.key_management_service;" vertex="1" parent="1">
          <mxGeometry x="455" y="1610" width="45" height="90" as="geometry" />
        </mxCell>
      </root>
    </mxGraphModel>
  </diagram>
</mxfile>
